<?xml version="1.0" encoding="UTF-8" standalone="no"?>
<!-- Generator: Adobe Illustrator 19.0.0, SVG Export Plug-In . SVG Version: 6.00 Build 0)  -->

<svg
   version="1.1"
   id="Layer_1"
   x="0px"
   y="0px"
   viewBox="0 0 262144 262144"
   xml:space="preserve"
   width="262144"
   height="262144"
   xmlns="http://www.w3.org/2000/svg"
   xmlns:svg="http://www.w3.org/2000/svg"><defs
   id="defs1873"><rect
     x="169.22591"
     y="7.4113531"
     width="167.99068"
     height="53.732311"
     id="rect3549" /></defs>
<path
   style="fill:#346b64;fill-opacity:1"
   d="m 14,279.998 c 0,47.353 76.181,138 242,138 165.819,0 242,-90.647 242,-138 z"
   id="path1814" />
<path
   style="fill:#40ada5;fill-opacity:1"
   d="M 256,283.998 H 12 c 0,0 0,36 42.069,36 33.655,0 117.793,-18 201.931,-18 84.138,0 168.276,18 201.931,18 42.069,0 42.069,-36 42.069,-36 z"
   id="path1816" />
<path
   style="fill:#4b5fa6;fill-opacity:1"
   d="m 492.818,243.208 c -8.897,-6.575 -20.211,-14.215 -32.84,-22.258 l -1.183,-12.903 C 467.004,197.438 472,183.449 472,168.109 472,148.192 463.583,130.55 450.635,119.637 434.551,90.429 389.568,82.944 363.72,103.584 328,132.109 294.667,148.109 256,148.109 c -38.667,0 -72,-16 -107.72,-44.524 C 122.432,82.945 77.45,90.43 61.365,119.638 48.417,130.551 40,148.192 40,168.109 c 0,16.475 5.759,31.396 15.075,42.238 l -0.622,9.059 C 40.845,228.014 28.645,236.213 19.182,243.207 12.855,247.883 8,255.381 8,264.459 c 0,13 8.782,23.539 19.615,23.539 h 456.77 c 10.833,0 19.615,-10.539 19.615,-23.539 0,-9.078 -4.855,-16.576 -11.182,-21.251 z"
   id="path1818" />
<g
   id="g1824">
	<ellipse
   style="fill:#96cd78"
   cx="92"
   cy="168.11"
   rx="52"
   ry="60"
   id="ellipse1820" />
	<ellipse
   style="fill:#96cd78"
   cx="420"
   cy="168.11"
   rx="52"
   ry="60"
   id="ellipse1822" />
</g>
<path
   d="M 472,268.109 H 40 c -4.418,0 -8,3.582 -8,8 0,4.418 3.582,8 8,8 h 432 c 4.418,0 8,-3.582 8,-8 0,-4.418 -3.582,-8 -8,-8 z"
   id="path1826" />
<path
   d="M 320,300.109 H 192 c -4.418,0 -8,3.582 -8,8 0,4.418 3.582,8 8,8 h 128 c 4.418,0 8,-3.582 8,-8 0,-4.418 -3.582,-8 -8,-8 z"
   id="path1828" />
<path
   d="m 483.105,224.949 c -9.717,-8.094 -13.741,-11.93 -11.921,-21.398 5.588,-10.328 8.816,-22.464 8.816,-35.441 0,-21.712 -9.036,-41.065 -23.058,-53.523 -8.67,-14.834 -24.283,-25.463 -43.124,-29.246 -20.05,-4.027 -40.644,0.458 -55.09,11.994 C 321.682,126.917 290,140.109 256,140.109 222,140.109 190.318,126.917 153.272,97.333 138.826,85.798 118.232,81.313 98.182,85.339 79.341,89.122 63.728,99.751 55.058,114.585 41.036,127.044 32,146.397 32,168.109 c 0,12.977 3.228,25.113 8.816,35.441 1.82,9.468 -2.204,13.305 -11.921,21.398 C 16.701,235.106 0,249.018 0,284.109 c 0,30.939 44.4,68.017 85.951,92.4 55.883,32.792 117.864,51.6 170.049,51.6 52.185,0 114.166,-18.808 170.049,-51.6 41.551,-24.383 85.951,-61.46 85.951,-92.4 0,-35.091 -16.701,-49.003 -28.895,-59.16 z M 464,168.109 c 0,10.585 -2.696,20.437 -7.312,28.661 -0.078,0.131 -0.148,0.266 -0.219,0.402 -7.916,13.829 -21.31,22.937 -36.47,22.937 -24.262,0 -44,-23.327 -44,-52 0,-28.673 19.738,-52 44,-52 9.282,0 17.896,3.423 25.002,9.245 0.351,0.356 0.731,0.674 1.135,0.955 10.829,9.481 17.864,24.686 17.864,41.8 z M 65.857,126.314 c 0.407,-0.282 0.791,-0.603 1.144,-0.962 7.105,-5.82 15.718,-9.242 24.999,-9.242 24.262,0 44,23.327 44,52 0,28.673 -19.738,52 -44,52 -15.159,0 -28.552,-9.107 -36.468,-22.935 C 55.46,197.037 55.389,196.9 55.31,196.768 50.696,188.545 48,178.694 48,168.11 c 0,-17.111 7.032,-32.315 17.857,-41.796 z m 352.094,236.395 c -52.713,30.933 -113.256,49.4 -161.951,49.4 -48.695,0 -109.238,-18.467 -161.951,-49.4 C 48.095,335.744 16,303.422 16,284.109 c 0,-27.596 11.761,-37.393 23.135,-46.867 5.547,-4.621 11.494,-9.583 15.006,-16.426 10.334,9.552 23.514,15.293 37.858,15.293 33.084,0 60,-30.505 60,-68 0,-33.803 -21.879,-61.914 -50.429,-67.125 15.396,-3.025 30.975,0.273 41.717,8.852 40.075,32.002 74.837,46.273 112.712,46.273 37.875,0 72.637,-14.271 112.712,-46.273 10.743,-8.579 26.321,-11.878 41.717,-8.852 -28.549,5.211 -50.428,33.323 -50.428,67.125 0,37.495 26.916,68 60,68 14.344,0 27.524,-5.741 37.858,-15.293 3.512,6.842 9.459,11.805 15.006,16.426 11.375,9.475 23.136,19.271 23.136,46.867 0,19.313 -32.095,51.635 -78.049,78.6 z"
   id="path1830" />
<path
   d="m 92,180.109 c 8.445,0 36,-1.154 36,-16 0,-14.846 -27.555,-16 -36,-16 -8.445,0 -36,1.154 -36,16 0,14.846 27.555,16 36,16 z"
   id="path1832" />
<path
   d="m 384,164.109 c 0,14.846 27.555,16 36,16 8.445,0 36,-1.154 36,-16 0,-14.846 -27.555,-16 -36,-16 -8.445,0 -36,1.154 -36,16 z"
   id="path1834" />
<path
   d="m 232,228.109 c 4.418,0 8,-3.582 8,-8 v -8 c 0,-4.418 -3.582,-8 -8,-8 -4.418,0 -8,3.582 -8,8 v 8 c 0,4.419 3.582,8 8,8 z"
   id="path1836" />
<path
   d="m 280,228.109 c 4.418,0 8,-3.582 8,-8 v -8 c 0,-4.418 -3.582,-8 -8,-8 -4.418,0 -8,3.582 -8,8 v 8 c 0,4.419 3.582,8 8,8 z"
   id="path1838" />















<text
   xml:space="preserve"
   id="text3547"
   style="font-size:42.6667px;white-space:pre;shape-inside:url(#rect3549);display:inline;fill:#070600;fill-opacity:1"
   transform="matrix(1.6023853,0,0,2.0119912,-76.248909,30.583459)"><tspan
     x="169.22656"
     y="46.338232"
     id="tspan916"><tspan
       style="font-family:Arial;-inkscape-font-specification:Arial"
       id="tspan914">Lv.2</tspan></tspan></text></svg>
