<?xml version="1.0" encoding="UTF-8" standalone="no"?>
<!-- Generator: Adobe Illustrator 19.0.0, SVG Export Plug-In . SVG Version: 6.00 Build 0)  -->

<svg
   version="1.1"
   id="Layer_1"
   x="0px"
   y="0px"
   viewBox="0 0 512.001 512.001"
   style="enable-background:new 0 0 512.001 512.001;"
   xml:space="preserve"
   sodipodi:docname="frog.svg"
   inkscape:version="1.2.1 (9c6d41e410, 2022-07-14)"
   xmlns:inkscape="http://www.inkscape.org/namespaces/inkscape"
   xmlns:sodipodi="http://sodipodi.sourceforge.net/DTD/sodipodi-0.dtd"
   xmlns="http://www.w3.org/2000/svg"
   xmlns:svg="http://www.w3.org/2000/svg"><defs
   id="defs59"><rect
     x="169.2259"
     y="7.4113531"
     width="167.99067"
     height="53.73231"
     id="rect3549" /><rect
     x="168.60828"
     y="7.4113531"
     width="158.72648"
     height="43.850506"
     id="rect3489" /></defs><sodipodi:namedview
   id="namedview57"
   pagecolor="#ffffff"
   bordercolor="#000000"
   borderopacity="0.25"
   inkscape:showpageshadow="2"
   inkscape:pageopacity="0.0"
   inkscape:pagecheckerboard="0"
   inkscape:deskcolor="#d1d1d1"
   showgrid="false"
   inkscape:zoom="1.6191375"
   inkscape:cx="251.6772"
   inkscape:cy="256.30929"
   inkscape:window-width="1920"
   inkscape:window-height="1009"
   inkscape:window-x="-8"
   inkscape:window-y="-8"
   inkscape:window-maximized="1"
   inkscape:current-layer="Layer_1" />
<g
   id="g6">
	<g
   id="g4">
		<path
   d="M109.423,107.243c-11.412,0-20.669,9.318-20.669,20.814c0,11.495,9.258,20.814,20.669,20.814    c11.398,0,20.655-9.319,20.655-20.814C130.078,116.561,120.821,107.243,109.423,107.243z"
   id="path2" />
	</g>
</g>
<g
   id="g12">
	<g
   id="g10">
		<path
   d="M402.591,107.243c-11.412,0-20.669,9.318-20.669,20.814c0,11.495,9.257,20.814,20.669,20.814    c11.398,0,20.655-9.319,20.655-20.814C423.246,116.561,413.989,107.243,402.591,107.243z"
   id="path8" />
	</g>
</g>
<g
   id="g18">
	<g
   id="g16">
		<path
   d="M477.795,175.055c8.623-13.628,13.634-29.737,13.634-47c0-48.772-39.854-88.451-88.844-88.451    c-32.831,0-61.538,17.836-76.918,44.272c-22.538-4.895-45.866-7.381-69.666-7.381c-23.737,0-47.102,2.478-69.67,7.375    c-15.38-26.434-44.085-44.267-76.915-44.267c-48.989,0-88.844,39.679-88.844,88.451c0,17.262,5.011,33.373,13.634,47    C13.417,202.728,1.727,233.776,0,266.063c27.426,21.956,56.876,37.243,92.182,47.882c43.349,13.064,96.935,19.415,163.819,19.415    c66.883,0,120.469-6.35,163.818-19.415c35.304-10.639,64.754-25.925,92.181-47.881    C510.274,233.78,498.585,202.729,477.795,175.055z M109.416,183.086c-30.561,0-55.422-24.686-55.422-55.031    c0-30.344,24.862-55.03,55.422-55.03c30.561,0,55.422,24.686,55.422,55.03C164.838,158.4,139.976,183.086,109.416,183.086z     M219.973,292.28c-9.757,0-17.697-7.984-17.697-17.834c0-9.85,7.94-17.828,17.697-17.828c9.769,0,17.708,7.978,17.708,17.828    C237.681,284.296,229.742,292.28,219.973,292.28z M291.894,292.414c-9.852,0-17.843-8.045-17.843-17.967    c0-9.923,7.991-17.967,17.843-17.967c9.839,0,17.83,8.043,17.83,17.967S301.734,292.414,291.894,292.414z M402.584,183.086    c-30.561,0-55.422-24.686-55.422-55.031c0-30.344,24.861-55.03,55.422-55.03c30.561,0,55.422,24.686,55.422,55.03    C458.006,158.4,433.145,183.086,402.584,183.086z"
   id="path14" />
	</g>
</g>
<g
   id="g24">
	<g
   id="g22">
		<path
   d="M429.462,345.945c-46.522,14.021-103.262,20.836-173.461,20.836s-126.94-6.816-173.463-20.836    c-29.201-8.8-54.85-20.473-78.691-35.916c9.3,40.106,34.307,76.846,72.702,105.899c48.124,36.415,111.854,56.469,179.451,56.469    s131.327-20.054,179.451-56.469c38.394-29.052,63.401-65.792,72.701-105.897C484.31,325.473,458.661,337.145,429.462,345.945z"
   id="path20" />
	</g>
</g>
<g
   id="g26">
</g>
<g
   id="g28">
</g>
<g
   id="g30">
</g>
<g
   id="g32">
</g>
<g
   id="g34">
</g>
<g
   id="g36">
</g>
<g
   id="g38">
</g>
<g
   id="g40">
</g>
<g
   id="g42">
</g>
<g
   id="g44">
</g>
<g
   id="g46">
</g>
<g
   id="g48">
</g>
<g
   id="g50">
</g>
<g
   id="g52">
</g>
<g
   id="g54">
</g>
<path
   style="fill:#4b5fa6;stroke-width:0.617613;fill-opacity:1"
   d="M 215.23805,332.24934 C 120.03205,327.55022 58.633338,309.46041 6.9042362,270.86828 L 0.22099173,265.88229 0.61890622,261.559 C 3.1697785,233.84411 12.506298,207.91001 28.629452,183.75397 l 5.777779,-8.65639 -2.797279,-5.25189 C 17.62591,143.59064 17.391373,113.76952 30.963483,87.647816 43.172799,64.149031 65.648691,47.275441 92.333107,41.575085 c 7.494126,-1.600904 27.148063,-1.579575 34.569733,0.03752 23.48217,5.116479 44.50178,19.45758 56.57495,38.599544 2.23958,3.550854 2.56437,3.819489 4.27649,3.537098 1.01906,-0.16808 6.71654,-1.137477 12.66106,-2.154214 37.16224,-6.356141 74.00806,-6.356141 111.1703,0 5.94452,1.016737 11.642,1.986134 12.66106,2.154214 1.71212,0.282391 2.03691,0.01375 4.27649,-3.537098 12.05309,-19.110124 33.13183,-33.491575 56.57495,-38.599544 7.42166,-1.617091 27.0756,-1.63842 34.56973,-0.03752 17.21248,3.67695 31.83281,11.371052 43.97871,23.144247 7.67267,7.437234 12.97264,14.424805 17.39091,22.928484 13.57212,26.121704 13.33758,55.942824 -0.64647,82.197874 l -2.79727,5.25189 5.77777,8.65639 c 16.12316,24.15604 25.45968,50.09014 28.01055,77.80503 l 0.39791,4.32329 -6.68324,4.98599 c -50.01403,37.31261 -106.24506,54.63244 -197.52559,60.84024 -12.61997,0.85826 -78.12781,1.24195 -92.3331,0.54082 z m 12.77322,-41.70163 c 6.31979,-3.06974 9.76915,-8.86221 9.72293,-16.32765 -0.0354,-5.7144 -1.86554,-9.70524 -6.20075,-13.52124 -7.28052,-6.40857 -18.87517,-5.49448 -25.28447,1.99334 -6.60619,7.71785 -4.9172,20.87442 3.42165,26.65325 5.31691,3.68462 12.28924,4.14168 18.34064,1.2023 z m 72.34712,-0.0602 c 3.86425,-1.97625 7.52513,-6.22401 8.67673,-10.0677 1.01107,-3.37466 0.85594,-9.22099 -0.33762,-12.7239 -1.39064,-4.08128 -6.27012,-8.96076 -10.3514,-10.3514 -12.19216,-4.15428 -24.46753,4.33498 -24.4017,16.87547 0.0239,4.5554 0.95626,7.64306 3.3516,11.09954 4.90443,7.07709 14.93457,9.32471 23.06239,5.16799 z M 123.52255,181.59068 c 10.64165,-2.74794 21.5077,-9.58139 28.56895,-17.96646 4.66878,-5.54409 9.58417,-15.05762 11.30588,-21.88209 7.39882,-29.32726 -9.8103,-58.664278 -39.38784,-67.145882 -4.03841,-1.158047 -6.34638,-1.381134 -14.38328,-1.390279 -11.220988,-0.01277 -15.046487,0.784432 -24.086893,5.019492 -21.558119,10.099096 -33.844089,31.849959 -31.424966,55.634199 1.241484,12.20597 6.108366,22.75103 14.663228,31.77079 9.246187,9.74865 19.180588,15.01098 32.510861,17.22126 4.99275,0.82785 16.72058,0.16269 22.23406,-1.26103 z m 288.48563,0.88607 c 11.50874,-2.00695 20.23696,-6.33953 28.56088,-14.17727 8.78563,-8.27248 14.74175,-18.91523 16.80197,-30.02278 1.06315,-5.73186 0.88116,-16.68303 -0.36794,-22.1418 -3.87411,-16.930297 -14.86192,-30.568036 -30.54148,-37.907151 -3.22703,-1.510471 -7.67384,-3.214527 -9.8818,-3.786792 -5.36322,-1.390049 -17.02995,-1.897339 -22.85168,-0.993633 -22.17371,3.442021 -40.3173,20.378765 -45.49849,42.472086 -1.61446,6.88426 -1.46197,19.11365 0.32197,25.82272 7.46537,28.07578 34.93381,45.70858 63.45657,40.73462 z"
   id="path1053" /><path
   style="fill:#4b5fa6;fill-opacity:1;stroke-width:0.617613"
   d="M 230.67837,471.20778 C 166.63904,465.80345 111.27102,444.42112 67.695367,408.2661 41.891451,386.85641 22.471355,360.70387 11.2247,332.21853 8.2826567,324.76697 4.2972428,312.02342 4.763172,311.5575 c 0.1475751,-0.14758 3.9999335,1.97731 8.560796,4.72198 45.415954,27.3307 105.010792,43.45931 179.988822,48.71177 38.43843,2.69274 90.70633,2.56163 129.38988,-0.32456 72.93973,-5.44206 131.25848,-21.47782 175.97434,-48.38721 4.56086,-2.74467 8.41322,-4.86956 8.56079,-4.72198 0.47524,0.47523 -3.56049,13.39977 -6.46932,20.71816 -18.64813,46.91743 -58.244,86.01507 -113.10276,111.67962 -28.43465,13.30257 -62.3288,22.54129 -96.77011,26.37717 -10.74417,1.19663 -49.69991,1.76289 -60.21724,0.87533 z"
   id="path1850" /><path
   style="fill:#f7dc16;fill-opacity:1;stroke-width:0.617613"
   d="m 393.32148,181.9422 c -43.39188,-8.29158 -60.76967,-59.51651 -30.86921,-90.993915 11.06052,-11.643847 24.49675,-17.452367 40.37072,-17.452367 30.05303,0 54.55685,24.373726 54.64,54.349922 0.0699,25.19181 -16.70832,46.75751 -41.37822,53.18509 -6.1702,1.6076 -16.87629,2.03619 -22.76329,0.91127 z m 18.50185,-34.89015 c 11.55358,-5.59299 15.18752,-21.4794 7.304,-31.93068 -7.50802,-9.95346 -23.19592,-10.80847 -31.57268,-1.72076 -11.71075,12.70466 -4.73469,33.26465 12.00669,35.38636 4.14806,0.52571 9.01449,-0.16284 12.26199,-1.73492 z"
   id="path3373" /><path
   style="fill:#f7dc16;fill-opacity:1;stroke-width:0.617613"
   d="M 99.642232,181.88843 C 73.184574,176.86313 54.414408,154.3791 54.526266,127.84584 54.681901,90.928492 90.998091,64.738736 126.30181,76.084245 c 8.96407,2.880771 16.34981,7.60321 23.24689,14.86404 19.73597,20.776845 19.85774,52.734015 0.28231,74.090305 -6.66645,7.27292 -16.9906,13.39072 -26.92607,15.95561 -6.51662,1.6823 -16.99327,2.08503 -23.262708,0.89423 z m 18.826808,-34.78315 c 3.57145,-1.57982 8.19183,-6.16567 9.74129,-9.66847 4.97158,-11.23909 0.60753,-23.56014 -10.09345,-28.49692 -3.24579,-1.49742 -4.64779,-1.77913 -8.82876,-1.77403 -4.36151,0.005 -5.47405,0.25408 -9.08386,2.03118 -4.482798,2.20688 -7.562948,5.31536 -9.827757,9.91815 -1.161998,2.36154 -1.411651,3.89156 -1.424585,8.73065 -0.01353,5.06293 0.205161,6.33302 1.595162,9.26419 1.899738,4.00608 5.917027,8.14433 9.66992,9.96107 5.13829,2.4874 12.67422,2.50151 18.25204,0.0342 z"
   id="path3375" /><path
   style="fill:#f7dc16;fill-opacity:1;stroke-width:0.617613"
   d="m 389.68951,180.69152 c -24.80213,-6.41311 -41.69681,-27.92609 -41.654,-53.04046 0.006,-3.45958 0.40255,-8.13878 0.88144,-10.39822 2.11348,-9.97151 8.02431,-20.503649 15.56897,-27.741364 11.39587,-10.932252 22.97172,-15.549686 38.81521,-15.482803 27.48224,0.116017 50.19592,20.668046 53.46364,48.375557 1.61581,13.70063 -2.71716,28.33626 -11.74978,39.6877 -12.80435,16.09144 -35.50756,23.72392 -55.32548,18.59959 z m 17.01245,-31.8476 c 6.7092,-1.27237 12.18653,-5.51238 14.9828,-11.5982 1.09796,-2.38959 1.34301,-4.08372 1.35966,-9.39988 0.0183,-5.85151 -0.14018,-6.78898 -1.62284,-9.59779 -2.00026,-3.78936 -6.40143,-7.96077 -10.29179,-9.75452 -2.27867,-1.05064 -4.0629,-1.33213 -8.45926,-1.3346 -5.05667,-0.003 -5.95349,0.18494 -9.70541,2.032 -17.58386,8.65651 -14.03815,35.83137 5.16767,39.60581 3.78445,0.74375 4.86484,0.7497 8.56917,0.0472 z"
   id="path3377" /><text
   xml:space="preserve"
   style="fill:#070600;fill-opacity:1"
   x="187.13667"
   y="15.440319"
   id="text3433"><tspan
     sodipodi:role="line"
     id="tspan3431"
     x="187.13667"
     y="15.440319" /></text><text
   xml:space="preserve"
   id="text3487"
   style="font-size:64px;white-space:pre;shape-inside:url(#rect3489);display:inline;fill:#070600;fill-opacity:1"><tspan
     x="168.60742"
     y="109.65086"
     id="tspan6748"><tspan
       dx="0 8.7174311 8.7343588 6.3053246"
       style="font-size:17.3333px"
       id="tspan6746">Lv.1</tspan></tspan></text><text
   xml:space="preserve"
   id="text3547"
   style="font-size:42.6667px;white-space:pre;shape-inside:url(#rect3549);display:inline;fill:#070600;fill-opacity:1"
   transform="matrix(1.6023853,0,0,2.0119912,-75.421742,-21.571761)"><tspan
     x="169.22656"
     y="46.338232"
     id="tspan6752"><tspan
       style="font-family:Arial;-inkscape-font-specification:Arial"
       id="tspan6750">Lv.1</tspan></tspan></text><path
   style="fill:#346b64;fill-opacity:1;stroke-width:0.617613"
   d="M 226.35508,470.54149 C 159.6501,463.77011 103.98366,440.52003 60.18833,401.13899 40.562796,383.49158 23.564801,360.1151 13.779442,337.31522 c -3.47908,-8.10626 -8.8840867,-24.03707 -8.3399224,-24.58123 0.1960543,-0.19606 4.4719183,2.00355 9.5019204,4.88802 17.000492,9.74898 31.588988,16.46625 49.9079,22.98011 35.81916,12.7366 78.81006,21.09658 125.37539,24.3804 5.0953,0.35932 11.20967,0.80583 13.58748,0.99224 2.37781,0.18641 15.16239,0.55981 28.41019,0.82978 120.65355,2.45873 200.70944,-12.40834 264.83713,-49.18253 5.03001,-2.88447 9.30931,-5.08064 9.50957,-4.88039 0.60866,0.60867 -5.18586,17.5125 -8.72017,25.43855 -26.14168,58.6254 -85.77323,104.24507 -161.27614,123.38038 -20.43076,5.17793 -38.41753,8.12002 -55.40919,9.06325 -12.83062,0.71224 -47.49417,0.66019 -54.80852,-0.0823 z"
   id="path6631" /></svg>
