<?xml version="1.0" encoding="UTF-8" standalone="no"?>
<svg
   version="1.1"
   id="Layer_1"
   x="0px"
   y="0px"
   width="100%"
   viewBox="0 0 841 823"
   enable-background="new 0 0 841 823"
   xml:space="preserve"
   sodipodi:docname="level2.svg"
   inkscape:version="1.2.1 (9c6d41e410, 2022-07-14)"
   xmlns:inkscape="http://www.inkscape.org/namespaces/inkscape"
   xmlns:sodipodi="http://sodipodi.sourceforge.net/DTD/sodipodi-0.dtd"
   xmlns="http://www.w3.org/2000/svg"
   xmlns:svg="http://www.w3.org/2000/svg"><defs
   id="defs1396"><rect
     x="169.22591"
     y="7.4113531"
     width="167.99068"
     height="53.732311"
     id="rect3549" /></defs><sodipodi:namedview
   id="namedview1394"
   pagecolor="#ffffff"
   bordercolor="#000000"
   borderopacity="0.25"
   inkscape:showpageshadow="2"
   inkscape:pageopacity="0.0"
   inkscape:pagecheckerboard="0"
   inkscape:deskcolor="#d1d1d1"
   showgrid="false"
   inkscape:zoom="1.0072904"
   inkscape:cx="417.95296"
   inkscape:cy="411.99638"
   inkscape:window-width="1920"
   inkscape:window-height="1009"
   inkscape:window-x="-8"
   inkscape:window-y="-8"
   inkscape:window-maximized="1"
   inkscape:current-layer="Layer_1" />
<path
   fill="#4B5FA6"
   opacity="1.000000"
   stroke="none"
   d=" M564.000000,824.000000   C377.500061,824.000000 191.500107,823.986816 5.500220,824.093628   C1.751323,824.095825 0.905281,823.249756 0.906695,819.500122   C1.009057,548.166931 1.009036,276.833679 0.906804,5.500447   C0.905392,1.752278 1.749419,0.905291 5.499620,0.906673   C282.832825,1.008855 560.166077,1.008829 837.499268,0.906871   C841.246826,0.905493 842.094849,1.748527 842.093445,5.499370   C841.990967,276.832581 841.990967,548.165833 842.093079,819.499023   C842.094482,823.245972 841.252930,824.100220 837.500793,824.095154   C746.500671,823.973206 655.500305,824.000000 564.000000,824.000000  z"
   id="path1181" />
<path
   fill="#020404"
   opacity="1.000000"
   stroke="none"
   d=" M415.400879,201.524948   C418.974579,200.056000 421.884338,201.090851 424.857147,202.424927   C447.498932,212.585464 470.201385,222.611862 492.791687,232.885010   C496.426666,234.538055 498.156952,234.133682 500.132324,230.490921   C508.549133,214.969940 517.392700,199.680878 525.873901,184.194016   C528.059753,180.202652 530.909302,177.972473 535.416260,177.126251   C555.549011,173.346146 575.655090,169.418533 595.736938,165.376022   C600.796936,164.357452 604.335999,165.676849 607.231567,170.042419   C614.505920,181.009796 622.088867,191.772064 629.434143,202.693161   C631.001648,205.023712 632.896851,206.444977 635.541199,207.441101   C677.675781,223.313507 695.869995,270.234467 675.354370,310.200043   C673.859192,313.112671 673.712891,315.785461 674.274292,318.817627   C679.125122,345.020142 683.980591,371.222198 688.664734,397.454742   C689.246826,400.714630 690.436401,403.370819 692.484558,405.907959   C708.602844,425.873047 724.650696,445.895050 740.709839,465.907806   C746.475159,473.092560 746.382751,475.194855 740.095215,482.149384   C687.014832,540.860046 633.919922,599.557495 580.895020,658.318237   C578.101807,661.413574 574.972717,663.353577 570.974121,664.544678   C523.091187,678.807556 475.236359,693.165283 427.407990,707.610046   C423.407104,708.818298 419.761627,708.894714 415.737213,707.671570   C367.297150,692.948792 318.826782,678.325500 270.336823,663.767883   C266.358765,662.573547 263.214111,660.592163 260.412109,657.510925   C207.722137,599.571289 154.960449,541.696899 102.222389,483.801025   C96.803886,477.852631 96.704628,475.269440 101.607025,469.090424   C119.937256,445.986938 138.250351,422.869659 156.660080,399.829651   C158.810089,397.138855 160.157349,394.333435 160.783005,390.949768   C164.961853,368.349915 169.218369,345.764069 173.574234,323.197723   C174.060745,320.677246 173.558746,318.802582 172.202393,316.696777   C145.720200,275.581787 163.233841,223.390259 209.087585,206.810547   C211.638657,205.888153 213.237076,204.440308 214.525833,202.134445   C220.377213,191.664963 226.474213,181.331604 232.244156,170.818253   C234.861908,166.048462 238.369247,164.328476 243.740280,165.250168   C264.751770,168.855881 285.781799,172.361237 306.839935,175.681656   C311.248901,176.376862 313.982330,178.454330 316.090698,182.274811   C324.541565,197.588562 333.259491,212.755096 341.687286,228.081314   C343.328735,231.066376 344.783142,231.538391 347.913544,230.191162   C370.248688,220.578781 392.668243,211.162537 415.400879,201.524948  z"
   id="path1183" />
<path
   fill="#4A5EA4"
   opacity="1.000000"
   stroke="none"
   d=" M570.567566,186.513962   C577.845215,185.082764 584.741089,183.892578 591.561829,182.366119   C594.569153,181.693069 596.478577,182.173920 598.218018,184.929443   C601.911377,190.780075 605.962402,196.404877 610.102051,202.466751   C604.452637,203.336777 599.516113,203.834290 594.698914,204.880661   C558.003662,212.851288 534.053101,246.895813 538.034790,285.269470   C541.703003,320.621368 573.010071,348.730713 609.247742,349.208771   C615.469055,349.290833 615.471680,349.291687 613.566101,355.438873   C609.868958,367.365417 606.023438,379.248901 602.547485,391.239532   C601.317017,395.484100 600.087158,395.216156 597.087830,392.682556   C573.673584,372.903870 550.161804,353.240265 526.618774,333.614746   C524.443298,331.801300 523.270691,329.762817 522.619202,327.016113   C517.240295,304.337250 511.891144,281.648193 506.110321,259.070404   C504.892700,254.314865 506.302765,251.211777 508.610291,247.333054   C516.355957,234.313507 524.417603,221.361115 530.684570,207.619690   C536.019592,195.921936 543.536255,189.571213 556.418579,189.144760   C561.020325,188.992447 565.577637,187.499359 570.567566,186.513962  z"
   id="path1185" />
<path
   fill="#4B5FA5"
   opacity="1.000000"
   stroke="none"
   d=" M451.272552,351.348907   C453.189453,346.514740 455.281769,341.983032 457.630280,337.219757   C461.792908,333.806671 464.713501,330.110840 464.207092,324.348145   C469.066833,314.193451 469.073425,314.175140 479.505249,317.924835   C488.214630,321.055450 496.906189,324.235657 505.829437,327.678406   C507.714203,329.956299 506.357910,331.656555 505.544159,333.427795   C503.900391,337.005768 503.687805,340.645782 506.548157,343.584412   C509.564545,346.683258 513.253357,347.636749 517.363037,345.331329   C518.637085,344.616608 520.053223,343.991516 521.926392,344.741394   C523.659424,347.395630 523.832825,350.240692 524.490662,353.343048   C523.895691,355.085846 522.793640,355.914917 521.403564,355.928009   C511.178650,356.024597 504.434906,361.544647 499.142151,370.071930   C496.151581,371.581940 494.026093,370.093903 491.888306,368.813019   C488.886597,367.014648 486.200928,364.755554 483.288208,362.821655   C481.217743,361.446991 479.547821,361.706207 478.176971,363.755066   C475.770844,367.351196 473.238678,370.859833 470.787842,374.424988   C469.176575,376.768860 469.635040,378.798065 471.403595,380.739380   C475.773743,385.536377 480.016632,390.444733 484.233734,395.375549   C486.098267,397.555695 487.287811,396.682281 488.213135,394.535339   C489.795990,390.863007 490.686340,386.927002 492.407959,383.314148   C493.378967,381.276428 493.984924,378.759277 497.313721,378.850800   C500.263794,383.009003 501.292358,387.837830 504.908325,391.373901   C511.468323,397.788940 518.805908,399.444275 527.326843,396.234650   C529.472961,395.426239 531.568787,394.037079 534.278564,395.778259   C539.710388,416.581543 544.827881,437.245636 549.866516,457.928925   C553.371521,472.316711 556.789978,486.725739 560.180542,501.140961   C560.531189,502.631958 562.047180,504.581482 560.214233,505.676697   C558.399658,506.760925 556.443787,505.771301 554.734680,504.447662   C546.442749,498.026093 538.094360,491.677429 529.760803,485.309692   C516.136536,474.899261 502.508209,464.494080 488.571411,453.962585   C483.305084,452.444305 479.933685,448.632629 475.997437,445.711243   C465.119446,437.637970 454.498688,429.223969 443.659668,421.096680   C442.402924,420.154327 440.707428,419.438721 440.170380,417.266846   C435.876343,413.650604 431.812408,410.228485 427.510468,407.137665   C425.155609,405.445770 424.815063,403.974915 426.132385,401.374878   C431.680328,390.424377 437.019287,379.368042 442.721680,368.155273   C445.017090,366.272125 446.690552,367.760071 448.492615,368.480011   C452.956787,370.263458 456.975616,368.783386 458.940277,364.718536   C460.725433,361.025055 459.365814,356.947052 455.408752,354.497406   C454.015137,353.634705 452.319641,353.230682 451.272552,351.348907  z"
   id="path1187" />
<path
   fill="#4B5FA5"
   opacity="1.000000"
   stroke="none"
   d=" M395.186676,360.597473   C402.090729,374.169403 408.588745,387.806396 415.269562,401.353241   C416.553619,403.956909 416.315643,405.582672 413.885529,407.156952   C411.942383,408.415741 410.207031,409.995361 408.180634,411.700439   C405.116730,416.878387 400.029144,419.299164 395.818298,422.663330   C383.778625,432.282074 371.517090,441.620941 359.354431,451.084808   C357.548035,452.490356 355.843658,454.155365 353.119598,454.750488   C350.301483,456.705841 347.822327,458.550873 345.151703,460.663910   C342.139069,465.889954 337.074188,468.364899 332.805481,471.648499   C321.362854,480.450409 310.173920,489.581909 298.528717,498.121613   C297.579193,498.817963 296.736450,499.615234 295.141174,499.759735   C292.392517,501.638947 289.972443,503.390167 287.572845,505.169067   C286.405029,506.034821 285.025146,506.408813 283.842255,505.682190   C282.574524,504.903503 283.438507,503.575531 283.688995,502.498047   C292.046783,466.550720 300.414734,430.605713 308.961060,394.309998   C311.567963,392.869843 313.314453,394.525787 315.004974,395.660370   C325.712250,402.846466 338.309113,399.195526 344.516235,389.793549   C345.335815,388.552063 346.147156,387.291718 347.995544,386.618469   C354.269379,390.141327 354.287048,396.256012 354.992737,402.438782   C354.274261,405.023560 352.308899,406.183929 350.894318,407.785645   C346.536896,412.719513 346.038910,419.648407 349.718445,424.827881   C353.540619,430.208130 360.557587,432.390533 366.575195,430.070709   C371.925934,428.007904 376.227722,421.186859 375.568176,415.811157   C374.722290,408.916718 369.621338,403.839020 362.844391,403.171021   C361.036377,402.992798 359.157043,403.201965 357.264282,401.877991   C355.400208,398.346985 357.823303,396.243652 359.545746,394.215393   C363.202118,389.909882 366.471649,385.285034 370.314819,381.144623   C373.151001,378.088989 374.028198,375.128143 371.122589,371.509308   C369.158600,369.063293 367.521301,366.332062 365.863892,363.649750   C364.089386,360.778015 361.992432,360.407410 359.281616,362.375885   C357.267487,363.838409 355.159882,365.174042 353.030365,366.471619   C351.143555,367.621368 349.211151,368.501709 346.572968,367.966187   C345.111145,367.136932 343.858185,366.598877 342.990509,365.571594   C337.703613,359.312378 330.857758,357.368164 322.955627,358.196167   C321.338593,358.365601 319.635803,358.684509 317.965942,357.189789   C319.483276,348.946381 321.281799,341.031982 322.915710,333.083710   C323.367767,330.884735 324.817139,330.228668 326.621796,329.615082   C338.393860,325.612305 350.149506,321.561188 362.295532,317.479248   C364.065826,317.915863 364.584534,319.041290 365.040466,320.335541   C367.687622,327.849884 369.231873,328.820099 377.216278,328.141907   C378.058472,328.070374 378.834625,328.268188 379.913086,328.758911   C382.562683,333.624298 384.895752,338.315155 387.315979,343.357513   C386.844788,345.405975 385.398254,346.180725 384.050415,347.149200   C380.306732,349.839264 379.372162,353.191376 381.111694,357.001038   C382.792206,360.681427 386.204163,362.229889 390.510193,361.135376   C391.950439,360.769287 393.331970,360.237091 395.186676,360.597473  z"
   id="path1189" />
<path
   fill="#4A5EA4"
   opacity="1.000000"
   stroke="none"
   d=" M307.145203,198.859741   C315.562012,213.841080 323.803223,228.499039 332.046051,243.156097   C332.535645,244.026672 332.820831,245.265396 333.568420,245.697632   C339.602753,249.186691 336.919434,254.190369 335.869110,258.787415   C330.938324,280.367920 325.882690,301.919922 320.938110,323.497284   C320.319885,326.195190 319.225616,328.314880 316.985657,330.129181   C292.916473,349.625153 268.893158,369.178314 244.954102,388.833710   C241.950485,391.299835 240.661224,391.556274 239.412262,387.341522   C236.149857,376.332214 232.484665,365.442505 229.000687,354.498535   C227.273041,349.071625 227.293549,349.065094 232.882187,349.027466   C267.728302,348.792847 296.840271,325.317383 304.421478,291.339264   C314.090485,248.003799 281.782715,205.278168 237.497360,203.008423   C233.581284,202.807724 232.209702,202.357071 234.750397,198.440842   C237.645386,193.978531 240.204773,189.284134 242.679184,184.569443   C243.895126,182.252640 245.417587,181.627319 247.902725,182.048965   C265.133301,184.972488 282.356903,187.951675 299.633209,190.581558   C304.616302,191.340118 304.693573,195.752304 307.145203,198.859741  z"
   id="path1191" />
<path
   fill="#354983"
   opacity="1.000000"
   stroke="none"
   d=" M570.746155,502.074432   C576.406677,483.109131 582.037842,464.459045 587.783203,445.844208   C597.215210,415.284851 606.721375,384.748352 616.195923,354.202118   C616.541321,353.088501 616.844543,351.959869 617.239502,350.864227   C617.519714,350.087158 617.914124,349.171967 618.916016,349.398926   C619.425598,349.514404 619.955566,350.159668 620.200439,350.692261   C620.684631,351.745331 620.993164,352.881500 621.346375,353.992188   C633.007385,390.661652 644.661255,427.333405 656.331055,464.000061   C657.210571,466.763519 658.353760,469.110260 654.198364,470.696075   C626.808533,481.148804 599.506104,491.830902 571.801147,502.460571   C571.207458,502.457123 570.987793,502.431305 570.746155,502.074432  z"
   id="path1193" />
<path
   fill="#354983"
   opacity="1.000000"
   stroke="none"
   d=" M256.987915,449.084137   C262.800659,467.318512 268.502075,485.173279 274.229248,503.108612   C272.050354,503.790344 270.808197,502.792175 269.506531,502.260040   C243.778152,491.741241 218.099518,481.098999 192.304596,470.746399   C188.053864,469.040436 187.453537,467.103882 188.723648,462.920807   C199.650970,426.931854 210.360184,390.876648 221.136459,354.841827   C221.327164,354.204102 221.503876,353.557922 221.754730,352.943298   C222.295181,351.619110 222.146591,349.395050 223.832764,349.344147   C225.932800,349.280823 225.807434,351.665924 226.276367,353.126404   C236.503189,384.977203 246.685623,416.842194 256.987915,449.084137  z"
   id="path1195" />
<path
   fill="#40837C"
   opacity="1.000000"
   stroke="none"
   d=" M641.519287,567.521912   C618.331848,593.169067 595.380310,618.552612 572.459106,643.902588   C570.774536,642.684570 571.219177,641.406189 571.178711,640.326111   C569.769226,602.729065 568.382019,565.131104 567.019897,527.532349   C566.761902,520.410828 570.767273,517.757874 577.309509,520.660278   C601.195557,531.256958 625.048157,541.929932 648.986938,552.406006   C652.615234,553.993835 653.236328,555.183594 650.182800,558.051331   C647.158691,560.891541 644.547485,564.171326 641.519287,567.521912  z"
   id="path1197" />
<path
   fill="#41837C"
   opacity="1.000000"
   stroke="none"
   d=" M269.351196,638.657593   C268.733948,643.092834 267.288086,641.375793 265.751434,639.688477   C256.778198,629.835571 247.778931,620.006348 238.801331,610.157410   C223.202820,593.045105 207.663116,575.878784 191.972229,558.851624   C189.349228,556.005188 188.648605,554.712585 192.996109,552.839539   C217.158340,542.429749 241.244308,531.837463 265.220764,521.007385   C269.246490,519.188904 272.226959,520.640442 275.623627,521.891418   C277.665100,522.643250 277.108459,524.268433 277.037811,525.657410   C276.809387,530.147583 276.467468,534.631958 276.175598,539.592163   C277.052460,541.078003 276.618683,542.232483 276.638214,543.381042   C276.855377,556.161865 275.150848,568.839722 274.305725,581.547302   C273.088318,599.853271 271.729767,618.159546 270.359283,636.460266   C270.308868,637.133179 270.027649,637.741272 269.351196,638.657593  z"
   id="path1199" />
<path
   fill="#2C3F6C"
   opacity="1.000000"
   stroke="none"
   d=" M245.636414,394.693298   C269.595856,374.822540 293.283417,355.193268 316.970978,335.564026   C317.320160,335.733704 317.669342,335.903351 318.018524,336.073029   C304.669525,392.057587 291.320557,448.042175 277.971558,504.026764   C277.626038,504.036682 277.280487,504.046631 276.934937,504.056580   C275.210754,498.727966 273.469543,493.404785 271.765137,488.069824   C262.543701,459.206085 253.347427,430.334290 244.087677,401.482819   C243.278107,398.960388 242.554230,396.657318 245.636414,394.693298  z"
   id="path1201" />
<path
   fill="#82D8D4"
   opacity="1.000000"
   stroke="none"
   d=" M567.956299,607.038391   C568.398560,619.680603 568.821655,631.833069 569.248169,643.985352   C569.312073,645.805603 569.762634,647.929260 567.631653,648.795532   C565.413513,649.697144 563.251404,650.870605 560.593689,649.138000   C539.253357,635.226196 517.843201,621.421143 496.405518,607.659546   C494.164734,606.221130 494.597931,605.193848 496.005249,603.434204   C517.124512,577.027954 538.186401,550.575806 559.236450,524.114258   C560.336304,522.731628 561.432495,521.597351 563.377991,522.006653   C565.631836,522.480835 564.835999,524.330566 564.887268,525.648987   C565.934570,552.614380 566.931396,579.581665 567.956299,607.038391  z"
   id="path1203" />
<path
   fill="#2C3F6C"
   opacity="1.000000"
   stroke="none"
   d=" M526.879761,340.474731   C541.808533,351.088898 555.504761,363.520203 569.794922,375.233734   C578.683289,382.519409 587.355530,390.068665 596.242493,397.356079   C598.608887,399.296570 599.382507,401.075226 598.409790,404.175385   C588.287476,436.435974 578.319153,468.744873 568.288208,501.034210   C567.910034,502.251526 567.859314,503.727112 566.279358,504.312714   C564.468628,503.418823 564.731506,501.483887 564.374329,499.993591   C552.032104,448.493622 539.751038,396.979004 527.475769,345.463013   C527.129333,344.009125 526.940979,342.517609 526.879761,340.474731  z"
   id="path1205" />
<path
   fill="#82D8D4"
   opacity="1.000000"
   stroke="none"
   d=" M277.646973,540.374023   C278.276459,535.409851 278.861694,530.840698 278.958740,526.261108   C279.043884,522.243164 280.358704,520.765381 284.579834,522.831787   C289.964813,526.980652 293.902740,531.816711 296.741272,537.953125   C312.431213,558.358826 327.916138,578.512085 343.719421,598.412537   C346.593903,602.032166 346.075317,603.337891 342.444702,605.701050   C321.979004,619.022095 301.699341,632.628784 281.334229,646.104858   C279.083557,647.594116 277.092377,649.982178 273.783081,648.117981   C270.286072,646.148132 270.569702,643.077942 270.871948,639.455444   C269.342529,633.940186 270.732147,628.870972 271.072845,623.828857   C272.634064,600.722595 274.164764,577.612244 276.082245,554.533081   C276.463226,549.947815 275.698761,545.227661 277.646973,540.374023  z"
   id="path1207" />
<path
   fill="#346A63"
   opacity="1.000000"
   stroke="none"
   d=" M416.451080,690.627563   C393.471893,684.131409 370.515869,677.293579 347.573792,670.409424   C327.016357,664.240845 306.472870,658.025757 285.928619,651.813293   C284.689117,651.438477 283.497437,650.905396 282.266632,650.439575   C282.346039,648.114746 284.261627,647.717224 285.518097,646.883179   C305.069305,633.906128 324.713989,621.068909 344.190063,607.980713   C347.684235,605.632568 349.518188,605.734863 352.230316,609.204163   C367.809235,629.132324 383.663940,648.844910 399.680847,668.842041   C401.788818,669.293579 402.594086,670.841980 403.645081,672.059265   C407.924805,677.016479 411.640411,682.420959 415.819000,687.459106   C416.502380,688.283081 416.499268,689.273682 416.451080,690.627563  z"
   id="path1209" />
<path
   fill="#346A63"
   opacity="1.000000"
   stroke="none"
   d=" M473.819885,630.283081   C479.170715,623.921753 484.262482,617.779358 489.232117,611.539734   C490.743866,609.641602 491.935822,608.508423 494.506683,610.178528   C515.008301,623.496521 535.584595,636.699707 556.124878,649.958496   C556.633972,650.287170 556.992004,650.850098 557.901550,651.813110   C513.871826,665.017883 470.360626,678.067139 426.610657,691.187988   C426.685760,688.856445 428.128357,687.996277 428.962402,686.419922   C430.253021,681.138428 434.418274,678.199280 437.300201,674.451416   C446.481628,662.511230 456.387360,651.144165 465.247528,638.930664   C467.505280,635.818420 469.956757,632.495361 473.819885,630.283081  z"
   id="path1211" />
<path
   fill="#81D7D3"
   opacity="1.000000"
   stroke="none"
   d=" M416.683594,574.191040   C417.774170,573.033264 418.562866,572.074097 419.664154,571.088806   C422.264862,575.905762 420.219879,581.045776 421.000092,585.022644   C421.000580,582.496521 420.903107,578.997009 421.042542,575.506897   C421.109039,573.841858 420.104553,571.467468 422.589813,570.828491   C424.606384,570.310181 425.278564,572.420654 426.238251,573.695496   C430.639404,579.542175 434.264374,585.910095 438.148285,592.084961   C446.364594,605.147705 454.821991,618.058044 462.911743,631.201416   C466.521912,637.066772 466.108368,638.051453 459.956512,641.345459   C450.309326,646.510803 440.869995,652.063965 431.290894,657.362000   C429.374664,658.421814 427.591644,659.578674 424.980347,659.716614   C421.607635,658.057983 417.798035,661.641907 414.646301,658.242310   C409.475372,657.999390 406.313660,654.402344 402.473633,652.329895   C395.799011,648.727722 389.099030,645.091675 383.005432,640.053894   C381.587738,638.074341 378.931519,638.037720 378.148071,635.397217   C378.340179,630.545471 381.725586,627.613098 383.872620,624.234863   C393.642090,608.863586 403.097015,593.290100 413.156982,578.102966   C414.079346,576.710571 414.891937,575.268860 416.683594,574.191040  z"
   id="path1213" />
<path
   fill="#40827B"
   opacity="1.000000"
   stroke="none"
   d=" M203.025833,407.957825   C197.439926,426.672913 191.871231,444.973969 186.552780,463.347443   C185.555511,466.792725 184.121872,468.110413 180.397781,468.026733   C162.763702,467.630646 145.122757,467.541290 127.484482,467.323669   C126.535080,467.311951 125.587807,467.127747 123.630386,466.913239   C155.276642,427.138092 185.629242,387.294647 220.206161,350.525665   C214.513977,369.540070 208.821793,388.554474 203.025833,407.957825  z"
   id="path1215" />
<path
   fill="#40837C"
   opacity="1.000000"
   stroke="none"
   d=" M624.017273,352.435516   C653.087708,385.111389 682.095703,417.303589 708.785461,451.472992   C712.375549,456.069244 716.071716,460.582947 719.738708,465.118713   C721.463318,467.251831 721.133728,468.328033 718.245056,468.307556   C699.579224,468.175385 680.913391,468.019531 662.247253,467.973114   C658.694458,467.964264 658.981506,465.081787 658.351440,463.115082   C648.542480,432.498260 638.823853,401.852478 629.099304,371.208649   C627.285950,365.494110 625.537598,359.758850 623.728638,353.650940   C623.647461,352.946075 623.596863,352.623352 624.017273,352.435516  z"
   id="path1217" />
<path
   fill="#3FAAA2"
   opacity="1.000000"
   stroke="none"
   d=" M423.921875,569.372192   C424.444336,566.795593 426.265137,567.450256 427.607147,567.448975   C458.101166,567.419373 488.595245,567.437622 519.089294,567.459473   C519.399841,567.459717 519.710266,567.627502 520.949768,567.985107   C504.834839,588.203491 488.948242,608.135315 472.928101,628.369141   C472.523926,629.614990 472.548218,630.625244 471.943024,631.494629   C468.123047,636.981750 466.380981,637.037598 462.780151,631.417603   C450.010223,611.487122 437.418365,591.442871 424.567017,571.564270   C424.198608,570.994324 423.915619,570.420044 423.921875,569.372192  z"
   id="path1219" />
<path
   fill="#2B3F6B"
   opacity="1.000000"
   stroke="none"
   d=" M377.708832,235.173798   C390.440338,229.504669 402.986664,224.156693 415.490509,218.711288   C418.463745,217.416458 419.824707,217.966660 419.819794,221.403763   C419.787262,244.208649 419.792633,267.013641 419.846222,289.818512   C419.851868,292.227142 418.770508,293.369781 416.585632,294.115875   C403.514618,298.579498 390.467682,303.114288 377.433197,307.683716   C374.870667,308.582062 373.511017,307.772064 372.366364,305.354065   C363.964020,287.604370 355.516602,269.875122 346.929657,252.214218   C344.430206,247.073624 348.861328,247.403595 351.655121,246.003021   C353.747162,246.793365 354.675354,248.279999 355.602356,249.914291   C359.149902,256.168488 365.590302,258.448456 371.669769,255.762894   C377.137726,253.347458 379.721069,247.127945 377.986725,240.711441   C377.525635,239.005524 376.392090,237.323257 377.708832,235.173798  z"
   id="path1221" />
<path
   fill="#3FAAA2"
   opacity="1.000000"
   stroke="none"
   d=" M376.742859,634.595459   C374.917236,634.687561 374.465424,633.442017 373.776337,632.569946   C357.373749,611.812256 340.983459,591.044922 324.601593,570.270935   C324.107178,569.644043 323.727081,568.926941 322.987946,567.775574   C354.929688,567.775574 386.390808,567.775574 417.856354,567.775574   C418.007812,569.767700 416.601532,570.718018 415.925354,572.392639   C415.278229,577.104614 412.092468,580.091858 409.893219,583.515381   C398.957275,600.539124 388.702240,618.001648 376.742859,634.595459  z"
   id="path1223" />
<path
   fill="#2C3F6C"
   opacity="1.000000"
   stroke="none"
   d=" M485.643433,247.858734   C486.126862,247.712051 486.297943,247.712082 486.456024,247.757416   C496.391327,250.606415 496.516937,250.910507 492.057953,260.021790   C484.672852,275.112061 477.242950,290.181183 469.999054,305.339081   C468.572632,308.323914 467.125244,309.136383 463.897888,307.925995   C451.284943,303.195679 438.609039,298.625977 425.879242,294.219818   C422.827606,293.163574 421.820679,291.580902 421.835724,288.430511   C421.938660,266.802887 421.961914,245.173874 421.800079,223.546875   C421.766968,219.120209 423.025696,218.930954 426.644623,220.614212   C437.802765,225.804108 449.096436,230.702667 460.655579,235.877014   C463.227997,238.573502 461.465118,241.050949 460.820557,243.508728   C458.258118,253.279449 463.929901,260.636169 473.438721,259.737244   C477.695007,259.334900 480.859436,257.286011 482.769714,253.318634   C483.618835,251.555115 483.676086,249.399399 485.643433,247.858734  z"
   id="path1225" />
<path
   fill="#336A63"
   opacity="1.000000"
   stroke="none"
   d=" M592.693726,511.653687   C613.963684,503.347015 634.904297,495.256836 655.771851,486.982513   C659.640137,485.448639 661.081360,485.825836 660.984680,490.400085   C660.612183,508.024506 660.551575,525.655273 660.284668,543.282288   C660.175415,550.497803 655.789673,553.154541 649.234131,550.219604   C627.075439,540.299316 604.904297,530.406799 582.743713,520.490662   C581.273193,519.832642 579.851257,519.065979 577.222168,517.762512   C582.959534,515.502075 587.649414,513.654358 592.693726,511.653687  z"
   id="path1227" />
<path
   fill="#346A63"
   opacity="1.000000"
   stroke="none"
   d=" M209.887421,542.936523   C203.768234,545.673584 198.000610,548.270264 192.233734,550.868652   C186.116531,553.624878 180.670654,550.047119 181.048645,543.231873   C181.536911,534.428711 182.386093,525.645447 183.076340,516.853394   C183.779663,507.894867 184.487976,498.936676 185.174332,489.976837   C185.398041,487.056335 185.953857,485.148804 189.720978,486.710052   C213.708679,496.651550 237.755646,506.449951 261.774506,516.316406   C262.502594,516.615540 263.136353,517.144287 264.848572,518.209595   C246.127533,526.638550 228.183411,534.717712 209.887421,542.936523  z"
   id="path1229" />
<path
   fill="#344983"
   opacity="1.000000"
   stroke="none"
   d=" M345.819336,462.230438   C347.754211,461.506500 349.048431,462.215790 350.346802,463.042328   C371.979370,476.812836 393.618347,490.573242 415.248322,504.347778   C415.513489,504.516602 415.680115,504.840149 416.293762,505.565521   C374.628510,505.565521 333.365021,505.565521 291.839050,505.565521   C292.102478,503.375946 294.523346,503.022217 295.824646,501.299377   C298.666107,496.811554 303.139893,494.680542 306.853363,491.708923   C318.596161,482.312134 330.548340,473.179779 342.477570,464.020050   C343.399872,463.311920 344.322998,462.618561 345.819336,462.230438  z"
   id="path1231" />
<path
   fill="#344983"
   opacity="1.000000"
   stroke="none"
   d=" M524.000000,506.032288   C491.095154,506.032349 458.690308,506.032349 426.087860,506.032349   C426.587006,503.841949 428.237366,503.542175 429.419678,502.829651   C450.375702,490.200287 471.371338,477.636505 492.311584,464.981171   C494.754944,463.504486 496.624512,462.620026 499.391449,464.775574   C516.067688,477.767303 532.895325,490.564758 549.693481,503.399536   C550.336365,503.890747 551.195740,504.098541 551.954224,504.438385   C551.681946,504.969666 551.409668,505.500977 551.137390,506.032257   C542.258240,506.032257 533.379150,506.032257 524.000000,506.032288  z"
   id="path1233" />
<path
   fill="#344983"
   opacity="1.000000"
   stroke="none"
   d=" M486.766052,454.763428   C488.220490,456.967987 490.979309,457.432098 491.889465,460.427216   C485.531189,461.253174 479.348694,462.111542 473.151917,462.850494   C457.487244,464.718567 441.811676,466.496277 426.152344,468.407349   C423.722504,468.703888 421.944305,468.977264 421.959808,465.572815   C422.047424,446.297943 422.014862,427.022552 422.044891,407.747345   C422.045319,407.473450 422.325317,407.200012 422.829437,406.277313   C428.006348,410.186920 433.099518,414.033295 438.501709,418.009033   C443.978027,420.224548 447.944092,424.099335 452.265717,427.391327   C462.555511,435.229614 472.815674,443.108246 483.104553,450.948639   C484.435303,451.962738 485.707245,453.006500 486.766052,454.763428  z"
   id="path1235" />
<path
   fill="#344982"
   opacity="1.000000"
   stroke="none"
   d=" M408.862518,413.254395   C412.399750,410.843079 415.599274,408.540894 418.771790,406.258148   C420.425140,407.644989 419.823029,409.250397 419.827545,410.639801   C419.885162,428.266449 419.722076,445.895844 419.999207,463.518463   C420.073547,468.245941 418.726074,468.916962 414.304108,468.243286   C394.592468,465.240173 374.820129,462.635559 355.070618,459.880798   C352.744354,459.556305 350.034149,459.358063 353.827026,456.260864   C355.889648,452.235962 359.771851,450.670227 362.824677,448.246704   C376.688141,437.241028 390.678467,426.394623 404.724457,415.621277   C405.903107,414.717224 406.994904,413.673492 408.862518,413.254395  z"
   id="path1237" />
<path
   fill="#495DA3"
   opacity="1.000000"
   stroke="none"
   d=" M420.255219,500.806885   C418.874451,505.201141 416.916351,501.894958 415.797821,501.193298   C398.037476,490.051758 380.356323,478.783844 362.662109,467.536926   C360.741974,466.316406 358.853210,465.046600 357.255493,463.001770   C367.876068,464.459686 378.499573,465.896759 389.116272,467.382263   C397.352936,468.534760 405.639618,469.442352 413.799286,471.005798   C425.882080,473.320923 437.396881,469.266052 449.176941,468.348999   C461.721100,467.372498 474.194550,465.486938 486.886536,463.975891   C486.394226,465.925568 484.910217,466.191833 483.838135,466.837891   C464.741394,478.345917 445.641052,489.848663 426.450439,501.198578   C425.333618,501.859100 423.723633,504.999451 421.882080,501.309204   C421.472504,500.448151 420.994202,500.375580 420.255219,500.806885  z"
   id="path1239" />
<path
   fill="#336A63"
   opacity="1.000000"
   stroke="none"
   d=" M343.000000,521.967163   C366.998505,521.967163 390.498413,522.104126 413.994324,521.856018   C418.915222,521.804016 420.246277,523.344543 420.033264,528.078003   C419.666534,536.227661 419.886902,544.406067 419.956451,552.571594   C419.978699,555.185059 419.303223,556.179993 416.442291,555.381836   C377.773590,544.594238 339.082489,533.887207 300.399963,523.149170   C300.107361,523.067932 299.856812,522.835022 298.410004,521.967224   C313.887329,521.967224 328.193665,521.967224 343.000000,521.967163  z"
   id="path1241" />
<path
   fill="#336A63"
   opacity="1.000000"
   stroke="none"
   d=" M429.398132,554.284912   C422.033203,555.698181 422.026947,555.698181 422.020233,548.815979   C422.012787,541.153442 422.087616,533.489990 421.980530,525.828979   C421.942749,523.127014 422.790588,521.932251 425.673737,521.937805   C464.817902,522.013000 503.962189,522.012451 543.106445,522.047913   C543.407471,522.048218 543.708313,522.286926 544.005249,522.709229   C542.353271,524.875366 540.059021,525.265747 537.796265,525.875916   C509.332062,533.552185 480.865540,541.220459 452.407959,548.921021   C444.925598,550.945740 437.604218,553.769043 429.398132,554.284912  z"
   id="path1243" />
<path
   fill="#2B3E6A"
   opacity="1.000000"
   stroke="none"
   d=" M398.042053,305.020721   C404.230896,302.884918 410.073517,300.940887 415.848724,298.813934   C418.559113,297.815674 419.865814,298.161957 419.859924,301.403992   C419.800079,334.352844 419.804840,367.301819 419.772369,400.250732   C419.772095,400.529755 419.509491,400.808472 419.335236,401.155182   C417.677979,401.309692 417.676636,399.783691 417.249359,398.895477   C404.194824,371.757263 391.244904,344.568420 378.096405,317.475952   C376.162811,313.491852 377.139221,311.904968 381.125580,310.742371   C386.709717,309.113831 392.160431,307.027863 398.042053,305.020721  z"
   id="path1245" />
<path
   fill="#2B3F6B"
   opacity="1.000000"
   stroke="none"
   d=" M463.187927,319.048889   C449.763550,346.605865 436.502563,373.820404 423.073242,401.380493   C421.517822,399.863007 421.981049,398.480225 421.979187,397.289520   C421.930176,365.963104 421.911011,334.636658 421.906769,303.310211   C421.905975,297.442108 422.049255,297.312866 427.325714,299.186981   C438.313599,303.089813 449.210358,307.261688 460.273895,310.933350   C464.952179,312.485962 466.244995,314.556335 463.187927,319.048889  z"
   id="path1247" />
<path
   fill="#3FAAA3"
   opacity="1.000000"
   stroke="none"
   d=" M543.634644,524.757690   C548.140564,523.905762 552.268738,522.902100 556.428955,521.890625   C556.961609,523.864929 555.617920,524.610718 554.879028,525.543457   C547.283630,535.132202 539.644043,544.686035 531.983459,554.222839   C531.083618,555.343018 530.442932,556.846741 528.357849,557.090942   C525.982056,558.650085 523.624451,558.493408 521.305664,558.494080   C492.600250,558.502258 463.894836,558.514954 435.189484,558.471802   C433.099792,558.468689 430.803406,558.983582 429.123230,556.530334   C429.102295,556.032410 429.032959,556.046326 429.055176,556.073853   C433.211304,552.504883 438.652100,552.439209 443.522949,551.124634   C475.626373,542.461060 507.654602,533.514893 539.846619,525.180603   C540.962219,524.891785 542.049805,524.375977 543.634644,524.757690  z"
   id="path1249" />
<path
   fill="#81D7D3"
   opacity="1.000000"
   stroke="none"
   d=" M175.980316,541.253601   C158.488571,522.044128 141.241074,503.121643 123.973846,484.177521   C125.435692,482.546326 127.023247,483.255981 128.385040,483.265991   C145.032272,483.388611 161.678711,483.661469 178.325912,483.715149   C181.407211,483.725098 182.599075,484.172974 182.326370,487.764343   C181.003174,505.189453 180.020996,522.640442 178.915848,540.082153   C178.795059,541.988708 178.982864,544.489807 175.980316,541.253601  z"
   id="path1251" />
<path
   fill="#3FAAA3"
   opacity="1.000000"
   stroke="none"
   d=" M316.393494,557.459839   C313.847473,557.138794 312.923950,555.473328 311.808746,554.062012   C307.406769,548.491333 303.002716,542.922302 298.329224,537.159058   C293.200684,533.522949 290.215454,528.527466 287.066895,523.333313   C287.697205,521.682678 288.727203,522.201904 289.628998,522.452515   C330.273712,533.749817 370.914948,545.059814 411.754883,556.676147   C410.645081,558.719666 408.714417,558.470337 406.921936,558.472961   C378.336609,558.514709 349.751282,558.508728 321.165924,558.482239   C319.677155,558.480835 318.159332,558.559570 316.393494,557.459839  z"
   id="path1253" />
<path
   fill="#EAD115"
   opacity="1.000000"
   stroke="none"
   d=" M223.472626,222.414154   C258.500977,217.366913 282.568451,241.868088 286.318146,266.467377   C289.647522,288.309387 282.737793,306.486267 264.970459,319.539459   C247.026276,332.722595 227.213272,334.167114 207.562134,323.758392   C188.107513,313.453827 178.338379,296.481628 178.743530,274.373749   C179.215942,248.595291 197.179138,227.919052 223.472626,222.414154  z"
   id="path1255" />
<path
   fill="#EAD115"
   opacity="1.000000"
   stroke="none"
   d=" M653.778931,243.214264   C667.615906,262.667236 668.651489,285.921051 656.732239,304.936584   C644.971008,323.700043 622.783997,333.620850 601.273376,329.734802   C579.417480,325.786407 562.488159,309.472412 557.549316,287.599915   C552.140747,263.647278 564.268311,238.565353 586.610352,227.496948   C609.693909,216.061203 636.509521,222.243134 653.778931,243.214264  z"
   id="path1257" />
<path
   fill="#81D7D3"
   opacity="1.000000"
   stroke="none"
   d=" M698.999146,504.002563   C687.084961,517.174927 675.408569,530.083557 663.667480,543.063660   C662.233459,541.691772 662.818176,540.297546 662.829346,539.088684   C662.986633,522.117432 663.280945,505.146973 663.345032,488.175629   C663.358093,484.723907 664.440857,483.724792 667.921875,483.766510   C683.816467,483.957001 699.714539,483.850128 717.198669,483.850128   C710.478088,491.291656 704.857422,497.515289 698.999146,504.002563  z"
   id="path1259" />
<path
   fill="#4A5DA3"
   opacity="1.000000"
   stroke="none"
   d=" M333.691010,322.793335   C330.629761,323.328644 327.656647,326.411407 325.608307,324.424591   C324.072388,322.934845 326.147095,319.485931 326.729828,316.939545   C331.178467,297.499786 335.646271,278.064209 340.193817,258.647430   C340.629578,256.786926 340.568329,254.675903 342.044647,253.093338   C343.809479,253.640793 344.016235,255.300034 344.639771,256.533997   C352.886993,272.854614 360.992157,289.247742 369.350586,305.510834   C371.045105,308.807770 370.966705,310.110352 367.076721,311.343445   C355.990784,314.857574 345.059814,318.860596 333.691010,322.793335  z"
   id="path1261" />
<path
   fill="#4A5DA3"
   opacity="1.000000"
   stroke="none"
   d=" M476.327301,300.336823   C484.309174,284.961670 492.115143,269.916748 500.650391,253.466156   C506.723145,278.684448 512.467468,302.538727 518.470825,327.468903   C510.919403,324.759033 504.415253,322.428101 497.913361,320.090942   C490.554749,317.445831 483.260437,314.599854 475.815216,312.226898   C471.937866,310.991119 471.028015,309.388123 473.363251,305.963684   C474.480042,304.325958 475.233398,302.440369 476.327301,300.336823  z"
   id="path1263" />
<path
   fill="#7087C5"
   opacity="1.000000"
   stroke="none"
   d=" M317.544159,357.187347   C329.527985,354.101532 339.667725,356.148193 347.078125,367.099976   C346.399994,371.848480 347.580170,376.016907 348.884552,380.200348   C349.457031,382.036591 350.055145,383.969482 348.858643,386.182373   C340.753387,403.347443 324.221954,406.678894 309.423279,394.134094   C311.874390,381.806793 314.607880,369.653961 317.544159,357.187347  z"
   id="path1265" />
<path
   fill="#4A5DA3"
   opacity="1.000000"
   stroke="none"
   d=" M651.040527,377.959564   C642.203918,368.029510 633.600464,358.367004 624.531555,348.181824   C637.472168,345.196136 648.433777,339.925659 658.127136,331.967316   C661.210449,329.435913 660.741028,333.006561 660.987915,334.331940   C664.703735,354.277008 668.331482,374.238464 671.969971,394.197906   C672.383179,396.464600 672.736694,398.742157 672.154053,401.688538   C665.193909,393.868073 658.233826,386.047607 651.040527,377.959564  z"
   id="path1267" />
<path
   fill="#7087C5"
   opacity="1.000000"
   stroke="none"
   d=" M497.705444,370.419373   C501.732361,358.836853 508.553528,354.508972 524.002075,353.810211   C527.858398,367.511780 531.231995,381.285431 534.616089,395.484192   C530.362000,396.609528 526.902588,399.584564 522.483276,399.990540   C509.330811,401.198792 498.651825,392.723053 496.606018,378.938477   C494.868896,375.657959 495.916382,373.145905 497.705444,370.419373  z"
   id="path1269" />
<path
   fill="#495DA3"
   opacity="1.000000"
   stroke="none"
   d=" M192.552597,376.550629   C187.523117,382.248016 182.728333,387.680725 177.933533,393.113434   C177.506271,392.916840 177.079010,392.720215 176.651749,392.523621   C177.768860,386.436493 178.864120,380.345215 180.007706,374.263062   C182.313538,361.999664 184.715897,349.753784 186.916901,337.471741   C187.457352,334.455994 188.140366,333.746368 190.894379,335.738129   C197.832855,340.756226 205.487457,344.466919 213.822830,346.457764   C218.094452,347.477936 216.997864,348.908203 214.940811,351.208801   C207.506485,359.523315 200.164261,367.920166 192.552597,376.550629  z"
   id="path1271" />
<path
   fill="#3EA8A0"
   opacity="1.000000"
   stroke="none"
   d=" M526.691467,558.659302   C526.003235,562.723206 524.202942,565.362000 519.636169,565.349548   C488.477417,565.264465 457.318268,565.313416 426.159302,565.283142   C424.320801,565.281372 421.978638,565.987610 421.963348,562.656311   C421.952545,560.296265 422.332794,558.684448 425.580475,558.948975   C427.282715,557.913940 428.768433,557.974609 430.277283,557.976868   C461.134186,558.023193 491.991089,557.983887 522.848022,558.008362   C524.007690,558.009277 525.174377,557.976013 526.691467,558.659302  z"
   id="path1273" />
<path
   fill="#3EA8A0"
   opacity="1.000000"
   stroke="none"
   d=" M413.576935,558.627075   C414.836273,558.937012 415.676117,559.116272 416.491241,559.038208   C419.042847,558.793518 420.031128,559.768250 420.004395,562.431641   C419.977264,565.137451 418.497711,565.314819 416.473907,565.313721   C385.493256,565.296997 354.512390,565.250671 323.532166,565.365234   C319.428101,565.380493 318.518372,562.116394 316.328369,559.608887   C317.154144,557.849976 318.732941,558.020752 320.210449,558.020020   C350.535370,558.005432 380.860291,557.961792 411.185181,558.036255   C411.855560,558.037903 412.509247,558.168274 413.576935,558.627075  z"
   id="path1275" />
<path
   fill="#3EA8A0"
   opacity="1.000000"
   stroke="none"
   d=" M428.177429,684.733093   C426.239166,686.743530 424.607178,688.563538 422.109924,691.348572   C422.109924,681.744507 422.101135,673.233704 422.116089,664.722900   C422.119873,662.574890 424.196014,662.398376 425.685394,661.159851   C431.892212,655.528381 439.371826,652.693359 446.185852,648.787659   C450.404022,646.369934 454.280396,643.143311 459.605103,642.338135   C460.128571,642.662476 460.306061,642.838501 460.633759,643.356567   C461.136841,647.078735 458.094574,648.562622 456.476440,650.603821   C448.070953,661.206726 439.640717,671.794556 431.121948,682.309265   C430.392212,683.209900 429.553253,684.023132 428.177429,684.733093  z"
   id="path1277" />
<path
   fill="#0C1918"
   opacity="1.000000"
   stroke="none"
   d=" M460.278564,642.503662   C448.924744,648.395630 437.794342,654.601013 426.318359,660.866516   C425.686523,660.659180 425.400269,660.391785 424.869690,659.958801   C436.907776,652.826477 449.208099,645.890686 461.448181,638.850220   C462.844727,638.046936 465.698395,637.865479 463.690308,634.741760   C450.113098,613.620911 436.637421,592.434814 422.074707,571.384277   C422.074707,579.605103 422.074707,587.825989 422.074707,596.046814   C421.350311,596.058716 420.625916,596.070618 419.901520,596.082520   C419.901520,588.051453 419.901520,580.020325 419.939117,571.526001   C420.656342,569.704224 421.801880,569.103516 423.618225,569.020996   C435.829376,587.412476 447.698853,605.817200 459.562592,624.225647   C461.181519,626.737671 462.951569,629.174072 464.330353,631.813354   C466.085693,635.173401 467.667267,635.402527 469.708405,632.122375   C470.403931,631.004639 471.372833,630.056946 472.505707,628.851318   C473.068115,629.010742 473.341644,629.350403 473.870544,629.895752   C464.146057,642.739258 454.198456,655.402710 444.172485,668.003662   C439.414734,673.983398 434.507385,679.844055 429.390808,685.944641   C428.855927,685.842529 428.598114,685.554382 428.105713,685.094910   C438.487061,671.486084 449.102966,658.048584 459.904968,644.333435   C460.091095,644.055725 460.305725,643.672302 460.378723,643.464355   C460.451691,643.256470 460.501984,642.816956 460.278564,642.503662  z"
   id="path1279" />
<path
   fill="#3EA8A0"
   opacity="1.000000"
   stroke="none"
   d=" M401.271393,668.037170   C394.628967,659.278687 388.067078,650.864075 381.225342,642.186157   C381.861389,640.931641 383.043335,640.769287 384.088074,641.417114   C393.852722,647.471924 404.368378,652.301941 413.745789,659.691406   C419.322144,661.994080 420.580994,665.961060 420.126801,671.320862   C419.680847,676.583679 420.075470,681.914978 419.992340,687.214478   C419.979706,688.022278 420.849121,689.761597 418.330688,689.184448   C414.452301,687.643066 413.156952,684.145813 411.028595,681.486023   C407.637756,677.248352 403.689362,673.401611 401.271393,668.037170  z"
   id="path1281" />
<path
   fill="#1D2B4A"
   opacity="1.000000"
   stroke="none"
   d=" M485.724976,247.470688   C486.366241,254.064896 483.638123,258.725647 477.760590,261.013092   C472.170898,263.188507 466.571259,262.685822 462.032257,258.377136   C457.289520,253.875076 457.106842,248.167175 458.785858,242.270645   C459.321289,240.390198 460.233154,238.616974 460.973267,236.417145   C469.145172,239.776566 477.316620,243.513535 485.724976,247.470688  z"
   id="path1283" />
<path
   fill="#1D2B4A"
   opacity="1.000000"
   stroke="none"
   d=" M377.559875,234.970474   C380.757599,240.559448 382.797913,246.258453 378.823029,252.303757   C375.359192,257.571838 370.457825,259.898621 364.302338,258.903076   C357.440948,257.793365 353.596771,253.344482 352.078491,246.318726   C360.415619,242.319153 368.812866,238.685913 377.559875,234.970474  z"
   id="path1285" />
<path
   fill="#7087C5"
   opacity="1.000000"
   stroke="none"
   d=" M522.246826,344.491943   C518.576599,347.067200 515.183594,349.996490 510.379425,348.579010   C502.686920,346.309265 499.715759,338.333557 504.093994,331.570068   C504.716614,330.608246 505.335052,329.643707 506.004364,328.321716   C509.929504,328.323761 513.331787,330.209290 516.955200,331.379028   C520.250366,332.442871 520.455566,335.488800 521.052429,338.229919   C521.476135,340.175812 521.857483,342.130981 522.246826,344.491943  z"
   id="path1287" />
<path
   fill="#0C1918"
   opacity="1.000000"
   stroke="none"
   d=" M544.006470,524.591919   C522.028809,530.937134 500.052521,536.991699 478.059235,542.983826   C462.001709,547.358704 445.921844,551.651489 429.464661,556.041138   C429.061371,555.775635 429.045319,555.449951 429.023651,554.632812   C441.188690,550.715027 453.332764,547.190308 465.535522,543.882324   C491.410065,536.868225 517.315247,529.967163 543.604492,523.011902   C544.000977,523.427490 544.000732,523.850952 544.006470,524.591919  z"
   id="path1289" />
<path
   fill="#7087C5"
   opacity="1.000000"
   stroke="none"
   d=" M450.862885,351.308105   C458.100098,352.219391 461.872253,355.713623 462.025574,361.169769   C462.164856,366.126160 458.647491,370.415039 453.702515,371.566956   C449.577026,372.527954 446.835968,369.821533 443.359192,368.021057   C444.843048,362.168671 447.989807,356.987305 450.862885,351.308105  z"
   id="path1291" />
<path
   fill="#111F1E"
   opacity="1.000000"
   stroke="none"
   d=" M277.472839,540.001038   C276.460602,561.314392 275.038483,582.646667 273.566681,603.975525   C272.779175,615.387634 271.905945,626.793823 270.951477,638.614380   C270.437775,639.021851 270.043976,639.017700 269.354797,639.016052   C270.058929,623.626648 270.992065,608.229980 272.075623,592.843994   C273.299408,575.466248 274.658417,558.097961 276.070251,540.395630   C276.468719,540.049988 276.755524,540.034241 277.472839,540.001038  z"
   id="path1293" />
<path
   fill="#7087C5"
   opacity="1.000000"
   stroke="none"
   d=" M395.413483,360.225464   C391.719604,364.053375 387.549072,365.162415 382.850830,362.400513   C378.964478,360.115906 377.596375,356.475433 378.110596,352.253296   C378.705170,347.371307 381.891632,344.744385 387.006042,343.775543   C390.034698,349.101685 392.666290,354.494415 395.413483,360.225464  z"
   id="path1295" />
<path
   fill="#7087C5"
   opacity="1.000000"
   stroke="none"
   d=" M380.168457,328.569946   C370.273712,333.573486 363.616913,329.522400 362.752686,317.887054   C372.916443,312.904633 372.921051,312.902435 377.629333,322.787140   C378.483429,324.580231 379.282745,326.399384 380.168457,328.569946  z"
   id="path1297" />
<path
   fill="#050E0D"
   opacity="1.000000"
   stroke="none"
   d=" M527.272583,558.784241   C493.695862,558.991394 460.306549,559.018982 426.454773,558.961182   C426.268158,557.463684 427.307373,556.790588 428.805908,556.153809   C430.496429,557.900146 432.486389,556.920105 434.154999,556.924500   C465.131226,557.006836 496.107697,557.000061 527.547852,557.090271   C527.827698,557.647217 527.643860,558.125977 527.272583,558.784241  z"
   id="path1299" />
<path
   fill="#050E0D"
   opacity="1.000000"
   stroke="none"
   d=" M413.917053,558.586548   C389.685577,558.949951 365.363434,559.022522 341.041260,559.099854   C333.044312,559.125305 325.047455,559.163208 316.596436,559.269897   C316.102814,558.861450 316.063324,558.378540 316.005920,557.532593   C345.676819,557.103760 375.365631,557.038818 405.054413,556.969971   C407.044617,556.965393 409.034790,556.931152 411.489105,556.947388   C412.800293,557.104370 413.470062,557.477478 413.917053,558.586548  z"
   id="path1301" />
<path
   fill="#111F1E"
   opacity="1.000000"
   stroke="none"
   d=" M376.829102,634.706543   C389.339661,614.105469 402.299103,593.620361 415.532990,572.932068   C416.047760,573.031250 416.288055,573.333496 416.756897,573.814148   C404.239838,594.229858 391.494202,614.467285 378.463684,634.873413   C377.878540,634.968933 377.578247,634.895691 376.829102,634.706543  z"
   id="path1303" />
<path
   fill="#090C16"
   opacity="1.000000"
   stroke="none"
   d=" M408.971252,412.976746   C394.450745,424.739380 379.708893,436.343201 364.946045,447.920258   C361.549011,450.584229 358.079895,453.156281 354.326904,455.892670   C353.753662,455.739655 353.497437,455.464661 353.010925,455.025269   C370.966614,440.637207 389.152557,426.413544 407.660156,412.079071   C408.235291,412.248260 408.488770,412.528229 408.971252,412.976746  z"
   id="path1305" />
<path
   fill="#090C16"
   opacity="1.000000"
   stroke="none"
   d=" M345.926910,461.940918   C331.521271,473.622803 316.894043,485.141144 302.254822,496.644165   C300.426178,498.081055 298.533844,499.436981 296.347595,500.934082   C295.770233,500.760895 295.516296,500.484100 295.033295,500.041840   C311.308685,486.970154 327.813141,474.063995 344.638916,461.044861   C345.207367,461.212189 345.454498,461.492401 345.926910,461.940918  z"
   id="path1307" />
<path
   fill="#090C16"
   opacity="1.000000"
   stroke="none"
   d=" M487.148438,454.825958   C473.112000,444.583160 459.257629,434.113617 445.418549,423.623901   C443.309540,422.025330 441.271545,420.333160 439.005707,418.411346   C439.102997,417.889435 439.395264,417.640411 439.863525,417.162964   C455.987091,429.048676 471.934601,441.162842 488.071686,453.557739   C487.952667,454.089874 487.644073,454.341248 487.148438,454.825958  z"
   id="path1309" />
<path
   fill="#111F1E"
   opacity="1.000000"
   stroke="none"
   d=" M414.074768,659.504883   C404.888489,654.705994 395.776489,649.430725 386.638702,644.200439   C385.082733,643.309875 383.416046,642.612732 381.373016,641.874512   C379.630615,640.057739 381.426971,640.222107 382.634186,639.752808   C393.250031,645.689941 403.560059,651.677063 414.076202,657.893494   C414.234985,658.429810 414.187683,658.736755 414.074768,659.504883  z"
   id="path1311" />
<path
   fill="#0C1918"
   opacity="1.000000"
   stroke="none"
   d=" M401.012360,667.947266   C406.725616,674.580139 412.260376,681.466919 417.900024,688.675354   C417.576843,689.531006 417.148773,690.065063 416.571289,690.794250   C411.011810,683.886108 405.601807,676.782776 400.064209,669.366516   C400.235687,668.769409 400.534790,668.485352 401.012360,667.947266  z"
   id="path1313" />
<path
   fill="#7087C5"
   opacity="1.000000"
   stroke="none"
   d=" M463.916321,324.314270   C467.680817,329.094330 465.424774,334.440796 458.259033,336.989136   C459.833221,332.862793 461.779938,328.737366 463.916321,324.314270  z"
   id="path1315" />
<path
   fill="#0C1918"
   opacity="1.000000"
   stroke="none"
   d=" M286.725525,522.990723   C290.674774,527.428101 294.263000,531.873291 297.955109,536.641968   C297.769012,537.243774 297.479065,537.522034 297.013062,538.046265   C292.924652,533.426758 289.012268,528.561157 285.010162,523.364990   C285.401794,523.022461 285.883118,523.010498 286.725525,522.990723  z"
   id="path1317" />
<path
   fill="#090C16"
   opacity="1.000000"
   stroke="none"
   d=" M420.513489,501.013184   C419.912781,499.568726 419.504181,498.095001 420.758118,496.501160   C422.490570,497.378326 421.870026,498.967987 421.900208,500.626953   C421.528595,500.998383 421.238617,501.005890 420.513489,501.013184  z"
   id="path1319" />
<path
   fill="#40837C"
   opacity="1.000000"
   stroke="none"
   d=" M623.896362,353.095154   C623.159058,352.780518 622.952148,352.240021 623.520752,351.654724   C623.549683,351.624939 623.988403,351.993225 624.362305,352.373322   C624.357178,352.687469 624.225952,352.804474 623.896362,353.095154  z"
   id="path1321" />
<path
   fill="#2C3F6C"
   opacity="1.000000"
   stroke="none"
   d=" M526.839966,340.144714   C526.703918,340.022308 526.649231,339.821503 526.594543,339.620728   C526.703796,339.637024 526.813110,339.653320 527.001465,339.787720   C527.080566,339.905792 526.921387,340.066315 526.839966,340.144714  z"
   id="path1323" />
<path
   fill="#354983"
   opacity="1.000000"
   stroke="none"
   d=" M571.255066,502.294556   C570.913208,502.753693 570.396973,503.029572 570.592041,501.891846   C570.843872,501.864319 570.963501,501.985229 571.255066,502.294556  z"
   id="path1325" />
<path
   fill="#7087C5"
   opacity="1.000000"
   stroke="none"
   d=" M495.644287,431.891815   C486.537933,428.402557 482.588745,422.834045 482.984619,414.555908   C483.286224,408.249115 488.609070,401.621124 494.879120,400.046295   C501.402161,398.407898 507.220367,400.038086 511.552734,405.134491   C515.945618,410.302032 517.330383,416.216583 514.193115,422.746460   C511.213043,428.949036 506.362518,432.005035 499.546204,432.058594   C498.383270,432.067749 497.219696,431.993744 495.644287,431.891815  z"
   id="path1327" />
<path
   fill="#010203"
   opacity="1.000000"
   stroke="none"
   d=" M497.576965,370.033020   C499.701965,373.059662 496.849518,375.233215 496.575134,378.177063   C493.603607,386.074829 490.716187,393.632599 487.500183,402.050415   C480.373566,393.950378 473.810242,386.475952 467.226471,379.019562   C465.872314,377.485901 466.802338,376.280365 467.677795,375.040924   C471.138428,370.141510 474.688416,365.302063 478.025391,360.319946   C479.432831,358.218567 480.602081,358.388397 482.442291,359.708710   C487.314697,363.204681 492.305756,366.535248 497.576965,370.033020  z"
   id="path1329" />
<path
   fill="#7087C5"
   opacity="1.000000"
   stroke="none"
   d=" M441.229614,398.241547   C444.235474,388.044861 451.277679,383.713379 458.977020,386.973877   C465.108490,389.570404 468.045380,395.076111 466.960938,401.940948   C466.152710,407.057495 461.001801,411.528900 455.390015,411.985443   C449.150421,412.493103 444.260529,409.214325 442.125946,402.976746   C441.648468,401.581482 441.485382,400.078674 441.229614,398.241547  z"
   id="path1331" />
<path
   fill="#7087C5"
   opacity="1.000000"
   stroke="none"
   d=" M525.330872,453.675995   C521.367676,447.674713 521.091614,444.402405 524.533386,440.283997   C527.231873,437.055054 530.626160,435.306213 535.096680,436.806396   C541.202881,438.855469 543.890930,444.565613 541.498352,450.773376   C539.673279,455.508728 533.770874,457.785767 528.585510,455.683807   C527.527527,455.254944 526.589722,454.529449 525.330872,453.675995  z"
   id="path1333" />
<path
   fill="#7087C5"
   opacity="1.000000"
   stroke="none"
   d=" M530.270386,463.271301   C535.747864,460.065460 540.125916,460.963074 541.582520,465.442383   C542.617188,468.624084 542.551636,471.908325 539.391357,473.909302   C536.372009,475.820984 532.891785,476.025085 530.207153,473.399170   C527.145325,470.404266 527.354553,466.890686 530.270386,463.271301  z"
   id="path1335" />
<path
   fill="#7087C5"
   opacity="1.000000"
   stroke="none"
   d=" M502.861572,439.664673   C506.424011,438.547882 509.165222,439.233551 510.960266,442.137726   C512.443481,444.537415 512.674072,447.178772 510.862457,449.548065   C509.314728,451.572296 507.312469,453.183350 504.546783,452.549164   C502.014130,451.968414 499.925934,450.405426 499.262512,447.836914   C498.406830,444.523956 499.285767,441.627960 502.861572,439.664673  z"
   id="path1337" />
<path
   fill="#7087C5"
   opacity="1.000000"
   stroke="none"
   d=" M479.371460,345.711334   C472.820129,346.036469 468.828522,341.995880 470.828094,337.461487   C472.042053,334.708618 474.049164,332.827576 477.347351,333.014038   C480.570709,333.196289 482.700317,335.180573 483.579742,337.949341   C484.680298,341.414337 483.061096,344.058624 479.371460,345.711334  z"
   id="path1339" />
<path
   fill="#7087C5"
   opacity="1.000000"
   stroke="none"
   d=" M535.359619,417.870483   C536.586243,421.655365 535.696899,424.592255 532.649475,426.370087   C530.444519,427.656494 527.844727,427.541504 525.594421,426.026489   C523.080139,424.333679 522.618713,421.796143 523.043335,419.014435   C523.444397,416.386780 525.297058,414.992645 527.633728,414.367310   C530.863647,413.502930 533.478760,414.538300 535.359619,417.870483  z"
   id="path1341" />
<path
   fill="#7087C5"
   opacity="1.000000"
   stroke="none"
   d=" M356.707581,400.979248   C368.331512,400.667358 374.186768,403.741699 376.856628,411.400208   C379.693604,419.538116 375.618835,428.807220 367.756531,432.100616   C360.069061,435.320831 350.512909,431.861298 346.766418,424.501801   C342.749756,416.611450 345.371613,408.003754 353.625854,403.044922   C354.610016,402.121185 355.108948,401.082733 356.707581,400.979248  z"
   id="path1343" />
<path
   fill="#010203"
   opacity="1.000000"
   stroke="none"
   d=" M357.156799,400.683197   C356.225739,401.697937 355.416199,402.402985 354.286865,403.047852   C352.297485,397.699280 350.627930,392.410889 348.799500,386.792419   C347.334351,382.246735 346.259338,377.939911 344.643768,373.846436   C343.491180,370.926025 344.176941,369.201965 347.044739,367.664978   C351.650238,364.670929 356.133820,362.098053 360.353607,359.147888   C363.094696,357.231537 364.580261,357.712982 366.232178,360.480774   C368.789764,364.765991 371.536987,368.964111 374.530884,372.953705   C376.545441,375.638245 376.069794,377.495758 374.048798,379.878082   C368.339203,386.608582 362.852722,393.528320 357.156799,400.683197  z"
   id="path1345" />
<path
   fill="#7087C5"
   opacity="1.000000"
   stroke="none"
   d=" M358.277588,336.966156   C361.147369,344.563263 358.658264,350.772278 352.323547,352.665771   C346.406677,354.434387 340.507385,351.107910 338.803314,344.929749   C337.487488,340.159302 339.358521,336.329651 343.130524,333.648102   C346.833740,331.015442 350.980347,331.184204 354.851440,333.552429   C356.090179,334.310211 357.004486,335.598236 358.277588,336.966156  z"
   id="path1347" />
<path
   fill="#7087C5"
   opacity="1.000000"
   stroke="none"
   d=" M380.219513,398.798126   C376.233734,393.048157 376.759155,387.011780 381.258362,383.524323   C385.815155,379.992218 391.801239,380.341797 395.741455,384.370117   C399.796814,388.516205 399.871490,394.362640 395.924286,398.684448   C391.673828,403.338287 386.170807,403.475433 380.219513,398.798126  z"
   id="path1349" />
<path
   fill="#7087C5"
   opacity="1.000000"
   stroke="none"
   d=" M311.846191,416.848877   C317.864563,411.324097 327.799316,414.442200 328.963867,421.956299   C329.731750,426.910950 327.680328,431.195496 323.548248,433.166779   C319.261505,435.211884 313.891449,433.996399 310.969147,430.319519   C308.034058,426.626556 308.245819,421.826050 311.846191,416.848877  z"
   id="path1351" />
<path
   fill="#7087C5"
   opacity="1.000000"
   stroke="none"
   d=" M320.727600,443.992767   C325.682312,445.030731 327.626617,447.889069 326.640533,452.394318   C325.749573,456.464874 321.755005,458.771088 317.923370,457.753937   C314.302032,456.792572 312.214905,453.242004 313.039978,449.144867   C313.830383,445.219788 316.512848,443.749969 320.727600,443.992767  z"
   id="path1353" />
<path
   fill="#7087C5"
   opacity="1.000000"
   stroke="none"
   d=" M334.140656,434.372803   C337.099976,430.887238 340.244781,429.745483 343.902405,432.411072   C346.936646,434.622375 347.894958,437.640717 346.358093,441.145538   C344.754791,444.801910 341.539673,445.469940 338.051666,444.916962   C333.817993,444.245789 332.227081,440.121552 334.140656,434.372803  z"
   id="path1355" />
<path
   fill="#1D2B4A"
   opacity="1.000000"
   stroke="none"
   d=" M383.065918,279.765442   C383.421356,274.522186 385.158630,270.353638 390.310638,269.259949   C394.599823,268.349426 399.068024,268.406677 401.872955,272.894562   C404.884979,277.713806 403.790405,283.639862 399.275757,287.100006   C395.039307,290.346954 389.387115,289.477753 385.488281,285.012085   C384.252960,283.597137 383.369995,282.034729 383.065918,279.765442  z"
   id="path1357" />
<path
   fill="#1D2B4A"
   opacity="1.000000"
   stroke="none"
   d=" M367.526672,267.371826   C373.134064,267.786743 375.722809,270.681396 374.928223,275.125244   C374.279694,278.752167 370.443878,280.941467 366.503540,279.847260   C364.074005,279.172638 362.486572,277.549896 362.111633,275.028564   C361.519348,271.046295 363.905121,268.949036 367.526672,267.371826  z"
   id="path1359" />
<path
   fill="#1D2B4A"
   opacity="1.000000"
   stroke="none"
   d=" M406.579285,246.178741   C412.718079,250.153412 413.613037,255.087082 408.992554,257.903320   C406.593842,259.365326 403.994141,259.629883 401.538269,257.923920   C398.837006,256.047485 398.429901,253.238312 399.234955,250.408295   C400.186859,247.062317 402.950378,246.045059 406.579285,246.178741  z"
   id="path1361" />
<path
   fill="#1D2B4A"
   opacity="1.000000"
   stroke="none"
   d=" M452.405518,267.263184   C460.370178,272.319702 459.217896,281.632019 452.815002,285.079346   C448.643066,287.325531 443.288513,286.960754 440.414215,283.647919   C437.717377,280.539703 436.116943,276.939636 438.136444,272.658936   C440.478851,267.693726 444.158508,265.432648 449.248901,266.132019   C450.214569,266.264679 451.132294,266.746124 452.405518,267.263184  z"
   id="path1363" />
<path
   fill="#1D2B4A"
   opacity="1.000000"
   stroke="none"
   d=" M466.160431,277.457947   C466.071838,270.186401 469.340057,266.719727 474.127380,268.668793   C477.057831,269.861877 479.182800,271.880371 478.951324,275.416382   C478.741577,278.621246 476.698975,280.760101 473.965515,281.598572   C470.594025,282.632782 467.845490,281.115570 466.160431,277.457947  z"
   id="path1365" />
<path
   fill="#1D2B4A"
   opacity="1.000000"
   stroke="none"
   d=" M443.000122,255.847397   C438.545319,259.879242 434.974030,259.992279 432.062775,256.528503   C429.442383,253.410690 429.823822,250.077118 433.133301,247.411163   C435.691132,245.350739 438.488403,245.508926 441.022522,247.169083   C444.100464,249.185440 444.609619,252.168427 443.000122,255.847397  z"
   id="path1367" />
<path
   fill="#1D2B4A"
   opacity="1.000000"
   stroke="none"
   d=" M413.695374,323.268494   C410.169891,329.677765 407.110596,331.359039 401.003204,329.864319   C396.911285,328.862823 394.574890,325.831665 394.063477,321.656769   C393.359192,315.907379 398.323883,310.126404 403.869293,310.041595   C409.851013,309.950104 414.210480,315.585632 413.695374,323.268494  z"
   id="path1369" />
<path
   fill="#1D2B4A"
   opacity="1.000000"
   stroke="none"
   d=" M411.190094,350.225037   C406.944977,353.820221 403.935181,353.836182 401.127747,350.621643   C398.425110,347.527100 398.863373,344.632355 401.636169,341.887848   C403.947510,339.600067 406.711487,339.195129 409.279999,341.039764   C412.358124,343.250305 414.077179,346.157501 411.190094,350.225037  z"
   id="path1371" />
<path
   fill="#1D2B4A"
   opacity="1.000000"
   stroke="none"
   d=" M443.508057,329.762695   C436.299591,332.145142 430.737244,329.379578 429.224121,323.008514   C427.832550,317.149231 431.493622,311.773865 437.678558,310.595276   C442.046661,309.762878 446.566345,312.403809 448.383270,316.850128   C450.391693,321.765045 448.770538,326.332977 443.508057,329.762695  z"
   id="path1373" />
<path
   fill="#1D2B4A"
   opacity="1.000000"
   stroke="none"
   d=" M442.153992,341.667816   C445.439270,346.278351 445.093384,349.541718 441.360931,352.030396   C438.249573,354.104980 434.211823,352.831207 432.121399,349.239990   C430.477386,346.415680 431.473572,344.138275 433.443695,342.089478   C436.009369,339.421295 438.871338,339.242371 442.153992,341.667816  z"
   id="path1375" />
<path
   fill="#080701"
   opacity="1.000000"
   stroke="none"
   d=" M271.647614,245.413300   C284.454468,263.236816 286.195068,281.869568 275.435181,300.536987   C264.761108,319.055542 247.723801,327.359711 226.584412,324.659393   C205.875824,322.014099 191.978836,309.854370 185.696823,289.874969   C178.752335,267.788666 188.825699,243.884903 209.222427,232.684509   C230.228043,221.149780 255.158051,226.138794 271.647614,245.413300  z"
   id="path1377" />
<path
   fill="#090801"
   opacity="1.000000"
   stroke="none"
   d=" M644.050171,239.931366   C658.071228,253.876251 663.190796,270.215942 658.127319,289.044098   C653.286377,307.044708 641.347229,318.721405 623.475098,323.758331   C601.088257,330.067566 577.558044,319.479614 566.838867,298.823792   C556.155701,278.237244 561.306030,253.033951 579.229614,238.189133   C597.073547,223.410309 622.803040,223.089859 641.121704,237.427277   C642.038818,238.145050 642.899109,238.935394 644.050171,239.931366  z"
   id="path1379" />
<path
   fill="#346A63"
   opacity="1.000000"
   stroke="none"
   d=" M460.067505,642.656555   C460.141113,641.993713 460.287872,641.868225 460.643005,641.793091   C460.994049,641.770569 461.197418,641.768738 461.410400,642.071899   C461.134521,642.842102 460.849091,643.307312 460.327393,643.914124   C460.087341,643.744751 460.083618,643.433838 460.067505,642.656555  z"
   id="path1381" />
<path
   fill="#346A63"
   opacity="1.000000"
   stroke="none"
   d=" M460.946045,641.925415   C461.201233,641.495911 461.623230,641.186707 461.526428,642.220825   C461.419952,642.376892 461.101471,642.078552 460.946045,641.925415  z"
   id="path1383" />
<path
   fill="#F2D816"
   opacity="1.000000"
   stroke="none"
   d=" M259.311737,307.360046   C244.483276,318.666229 228.785568,320.510284 212.846359,311.587708   C197.281357,302.874634 190.148666,288.730774 192.249603,271.029205   C194.297577,253.773758 204.300949,242.116257 220.886490,236.731522   C239.092636,230.820648 258.978943,238.843384 268.548096,255.496658   C278.386200,272.618011 274.811584,293.196350 259.311737,307.360046  z"
   id="path1385" />
<path
   fill="#F3D816"
   opacity="1.000000"
   stroke="none"
   d=" M580.399780,248.420395   C593.878052,235.071106 611.386353,231.549316 627.439880,238.745117   C642.798889,245.629608 652.582336,261.429291 651.725464,277.964996   C650.827820,295.287811 639.611572,309.958771 623.211853,315.261078   C605.823242,320.883179 586.842407,314.312744 576.562012,299.112732   C566.096375,283.638824 567.504517,263.895477 580.399780,248.420395  z"
   id="path1387" />
<path
   fill="#030300"
   opacity="1.000000"
   stroke="none"
   d=" M242.945816,296.284607   C233.321899,298.494080 224.317581,297.936340 215.810150,293.685059   C208.568237,290.066162 203.229660,284.623383 203.186768,276.003326   C203.143845,267.378906 208.372726,261.786438 215.663605,258.246857   C226.938217,252.773224 238.498993,252.735168 249.831543,258.091522   C257.349731,261.645020 262.721100,267.322021 262.624268,276.145905   C262.530029,284.734406 257.101227,290.077301 249.876282,293.752808   C247.823471,294.797119 245.536072,295.380341 242.945816,296.284607  z"
   id="path1389" />
<path
   fill="#030300"
   opacity="1.000000"
   stroke="none"
   d=" M624.263672,295.503021   C613.487305,299.007141 603.213623,298.804443 593.363831,293.850372   C586.134399,290.214294 580.914795,284.761047 580.961792,276.063080   C581.007568,267.589935 586.094849,262.171631 593.168701,258.666595   C604.588013,253.008453 616.324280,253.010513 627.789185,258.482788   C635.083679,261.964478 640.311768,267.502380 640.315857,276.190247   C640.319885,284.880219 634.966553,290.129883 627.819397,293.944427   C626.797363,294.489899 625.692200,294.879730 624.263672,295.503021  z"
   id="path1391" />
<text
   xml:space="preserve"
   id="text3547"
   style="font-size:42.6667px;white-space:pre;shape-inside:url(#rect3549);display:inline;fill:#070600;fill-opacity:1"
   transform="matrix(2.6769184,0,0,2.5946991,-134.43913,67.473235)"><tspan
     x="169.22656"
     y="46.338232"
     id="tspan1118"><tspan
       style="font-family:Arial;-inkscape-font-specification:Arial"
       id="tspan1116">Lv.4</tspan></tspan></text></svg>
