<?xml version="1.0" standalone="no"?>
<!DOCTYPE svg PUBLIC "-//W3C//DTD SVG 20010904//EN"
 "http://www.w3.org/TR/2001/REC-SVG-20010904/DTD/svg10.dtd">
<svg version="1.0" xmlns="http://www.w3.org/2000/svg"
 width="1280.000000pt" height="1196.000000pt" viewBox="0 0 1280.000000 1196.000000"
 preserveAspectRatio="xMidYMid meet">
<metadata>
Created by potrace 1.15, written by Peter Selinger 2001-2017
</metadata>
<g transform="translate(0.000000,1196.000000) scale(0.100000,-0.100000)"
fill="#000000" stroke="none">
<path d="M11790 11760 c-83 -9 -140 -35 -248 -111 -88 -62 -121 -92 -317 -287
-60 -61 -126 -117 -145 -126 -19 -8 -48 -23 -65 -33 -16 -10 -61 -37 -100 -60
-93 -55 -183 -85 -277 -91 -70 -4 -81 -2 -122 22 -50 29 -110 100 -125 149 -5
18 -24 79 -41 136 -27 89 -38 111 -77 152 -100 107 -262 147 -396 99 -77 -28
-92 -41 -111 -98 -20 -57 -20 -113 -1 -195 8 -36 20 -98 25 -140 17 -120 3
-165 -152 -497 -22 -47 -53 -123 -70 -170 -16 -47 -46 -116 -66 -154 -33 -63
-132 -183 -202 -246 -32 -28 -160 -197 -160 -211 0 -4 -19 -32 -42 -61 -123
-153 -423 -629 -485 -766 -42 -94 -110 -162 -164 -162 -22 0 -79 65 -79 90 0
23 -284 330 -391 422 -40 35 -102 90 -138 123 -36 33 -104 92 -151 131 -130
108 -123 98 -109 194 19 133 1 289 -66 560 -54 218 -127 359 -247 480 -30 30
-59 62 -64 70 -27 46 -156 120 -244 140 -135 31 -409 27 -462 -6 -7 -5 -33
-16 -58 -24 -41 -14 -172 -97 -242 -152 -26 -21 -29 -21 -65 -5 -21 9 -65 24
-98 33 -33 8 -112 29 -175 46 -98 26 -138 31 -274 36 -122 3 -177 1 -235 -11
-42 -9 -103 -21 -136 -27 -74 -14 -209 -54 -292 -86 -213 -81 -361 -182 -478
-324 -89 -106 -94 -109 -142 -66 -146 134 -345 225 -555 255 -71 10 -269 -1
-308 -18 -14 -5 -67 -26 -119 -46 -127 -50 -172 -81 -258 -177 -98 -109 -172
-262 -209 -428 -17 -73 -19 -342 -5 -400 68 -265 149 -413 363 -655 43 -48 78
-96 78 -105 0 -10 -27 -45 -59 -78 -120 -120 -243 -349 -277 -517 -13 -65 -18
-135 -17 -250 0 -178 17 -265 85 -435 39 -99 157 -293 222 -365 45 -50 55 -79
37 -113 -13 -24 -89 -188 -189 -409 -53 -117 -86 -217 -122 -368 -38 -164 -51
-195 -116 -291 -105 -154 -186 -327 -224 -480 -20 -80 -22 -105 -17 -269 7
-241 31 -331 150 -573 62 -126 103 -190 160 -249 39 -41 40 -43 33 -95 -13
-103 -30 -445 -30 -608 0 -173 20 -389 68 -719 9 -60 -37 -111 -101 -111 -38
0 -136 25 -198 51 -51 22 -189 100 -260 149 -55 37 -208 97 -280 109 -109 19
-129 19 -259 0 -71 -10 -133 -16 -137 -13 -5 2 -54 -2 -110 -11 -59 -9 -170
-15 -263 -15 -160 0 -267 -13 -351 -43 -22 -8 -111 -49 -197 -91 -87 -42 -160
-76 -163 -76 -14 0 -126 -79 -179 -128 -68 -62 -83 -87 -127 -205 -118 -319
-59 -660 184 -1070 60 -101 313 -387 342 -387 6 0 22 -15 35 -32 13 -18 36
-42 50 -53 14 -11 59 -52 101 -90 80 -75 217 -177 284 -211 22 -11 85 -47 140
-81 114 -68 129 -75 280 -131 221 -81 328 -110 505 -136 400 -60 520 -69 940
-72 469 -3 975 -21 1125 -39 72 -8 265 -20 430 -25 165 -6 353 -15 419 -21 81
-7 141 -7 190 0 43 6 187 8 361 5 160 -3 344 -6 410 -7 134 -2 479 18 495 28
6 4 232 8 503 10 271 2 560 7 643 11 101 5 183 3 245 -5 52 -7 243 -15 424
-17 182 -3 409 -7 505 -8 154 -3 262 -10 279 -20 17 -10 479 25 566 43 55 10
123 22 150 26 135 18 298 87 435 183 113 79 311 226 354 262 48 40 116 85 266
174 58 34 140 87 182 117 42 30 118 81 168 113 113 73 251 194 390 342 186
197 339 383 375 454 10 19 33 56 51 81 47 64 158 289 193 389 92 269 121 452
87 564 -38 124 -147 251 -311 361 -96 64 -219 101 -450 136 -128 20 -189 23
-415 23 -269 0 -281 -1 -560 -49 -52 -9 -147 -29 -210 -46 -63 -16 -194 -47
-290 -70 -96 -23 -213 -56 -260 -74 -94 -37 -262 -102 -415 -160 -55 -21 -104
-41 -110 -45 -5 -4 -33 -13 -62 -19 -45 -9 -137 -39 -263 -86 -19 -8 -57 -26
-84 -41 -80 -45 -81 -44 -82 207 0 207 -2 220 -37 394 -21 99 -46 209 -56 245
-10 36 -27 101 -36 145 -22 103 -56 237 -99 395 -67 242 -86 305 -104 350 -11
25 -31 81 -45 125 -48 153 -124 345 -197 501 -28 59 -70 233 -70 289 0 48 66
130 275 341 115 115 242 250 283 299 41 50 91 104 111 121 35 30 87 97 265
339 115 156 202 320 256 485 30 89 80 191 160 325 26 44 69 134 95 200 26 66
72 171 102 232 142 296 244 654 268 938 7 92 45 247 75 304 11 22 41 56 67 75
119 87 276 219 368 310 102 101 172 146 228 146 15 0 44 7 65 16 20 9 98 37
173 64 160 56 172 62 222 106 43 40 62 41 148 13 139 -44 397 -79 451 -60 17
6 42 11 55 11 39 0 95 34 146 89 58 62 74 98 83 182 8 80 -7 120 -72 189 -87
93 -208 169 -311 195 -98 24 -194 62 -216 84 -19 18 -19 23 -7 47 20 37 205
203 246 220 18 8 64 41 102 73 38 32 91 70 118 84 60 30 77 49 105 112 18 41
20 59 15 123 -13 135 -66 236 -162 308 -51 39 -128 67 -167 63 -7 -1 -41 -5
-77 -9z"/>
<path d="M1131 4824 c-14 -32 -11 -38 14 -21 13 10 15 18 8 31 -8 15 -11 14
-22 -10z"/>
</g>
</svg>
