<?xml version="1.0" standalone="no"?>
<!DOCTYPE svg PUBLIC "-//W3C//DTD SVG 20010904//EN"
 "http://www.w3.org/TR/2001/REC-SVG-20010904/DTD/svg10.dtd">
<svg version="1.0" xmlns="http://www.w3.org/2000/svg"
 width="250.000000pt" height="250.000000pt" viewBox="0 0 250.000000 250.000000"
 preserveAspectRatio="xMidYMid meet">
<metadata>
Created by potrace 1.14, written by Peter Selinger 2001-2017
</metadata>
<g transform="translate(0.000000,250.000000) scale(0.100000,-0.100000)"
fill="#000000" stroke="none">
<path d="M548 2263 c-8 -10 -29 -44 -47 -76 -26 -45 -43 -63 -79 -81 -145 -74
-200 -262 -115 -392 12 -19 10 -40 -14 -165 l-27 -142 -118 -149 c-65 -82
-118 -153 -118 -156 0 -4 17 -25 37 -47 20 -22 102 -112 182 -200 79 -88 152
-167 160 -176 9 -9 52 -56 96 -104 175 -193 134 -167 365 -236 113 -33 246
-73 295 -88 l91 -27 292 88 c279 84 293 89 326 125 44 49 80 88 125 138 20 22
63 69 95 105 33 36 78 85 100 110 23 25 82 90 131 145 50 55 100 111 113 125
48 52 50 49 -65 190 l-107 132 -30 167 c-31 165 -31 166 -13 205 57 120 -10
296 -135 352 -29 13 -54 39 -95 97 -45 64 -59 78 -77 74 -11 -3 -74 -15 -138
-27 l-117 -22 -38 -67 c-21 -36 -47 -83 -57 -103 -11 -21 -24 -38 -29 -38 -5
0 -70 27 -144 60 -75 33 -141 60 -148 60 -7 0 -71 -25 -144 -55 -73 -31 -136
-53 -141 -50 -8 5 -40 60 -97 167 -8 16 -24 30 -36 33 -21 4 -104 18 -177 30
-19 3 -47 8 -61 11 -17 3 -30 -1 -41 -13z"/>
</g>
</svg>
